# Blender v3.5.0 OBJ File: ''
# www.blender.org
o Plane
v -10.000000 0.000000 10.000000
v 10.000000 0.000000 10.000000
v -9.586695 0.000000 -10.507546
v 10.413305 0.000000 -10.507546
v -9.586695 0.000000 -0.507547
v 0.413306 0.000000 9.492454
v 10.000000 0.000000 0.000000
v 0.413306 0.000000 -10.507546
v 0.000000 0.000000 0.000000
v -10.000000 0.000000 5.000000
v 5.413306 0.000000 9.492454
v 10.413305 0.000000 -5.507546
v -4.586694 0.000000 -10.507546
v -10.000000 0.000000 -5.000000
v -4.586694 0.000000 9.492454
v 10.000000 0.000000 5.000000
v 5.000000 0.000000 -10.000000
v 0.000000 0.000000 -5.000000
v 0.000000 0.000000 5.000000
v -5.000000 0.000000 0.000000
v 5.000000 0.000000 0.000000
v 5.000000 0.000000 5.000000
v -5.000000 0.000000 5.000000
v -5.000000 0.000000 -5.000000
v 5.000000 0.000000 -5.000000
v -9.586695 0.000000 6.992454
v 7.500000 0.000000 10.000000
v 10.000000 0.000000 -7.500000
v -7.500000 0.000000 -10.000000
v -10.000000 0.000000 -2.500000
v -2.500000 0.000000 10.000000
v 10.000000 0.000000 2.500000
v 2.500000 0.000000 -10.000000
v 0.000000 0.000000 -7.500000
v 0.000000 0.000000 2.500000
v -7.500000 0.000000 0.000000
v 2.500000 0.000000 0.000000
v -9.586695 0.000000 1.992453
v 2.500000 0.000000 10.000000
v 10.413305 0.000000 -3.007547
v -2.500000 0.000000 -10.000000
v -9.586695 0.000000 -8.007546
v -7.500000 0.000000 10.000000
v 10.413305 0.000000 6.992454
v 7.500000 0.000000 -10.000000
v 0.000000 0.000000 -2.500000
v 0.000000 0.000000 7.500000
v -2.500000 0.000000 0.000000
v 7.500000 0.000000 0.000000
v 5.000000 0.000000 2.500000
v 5.000000 0.000000 7.500000
v 2.500000 0.000000 5.000000
v 7.500000 0.000000 5.000000
v -5.000000 0.000000 2.500000
v -5.000000 0.000000 7.500000
v -7.500000 0.000000 5.000000
v -2.500000 0.000000 5.000000
v -5.000000 0.000000 -7.500000
v -5.000000 0.000000 -2.500000
v -7.500000 0.000000 -5.000000
v -2.500000 0.000000 -5.000000
v 5.000000 0.000000 -7.500000
v 5.000000 0.000000 -2.500000
v 2.500000 0.000000 -5.000000
v 7.500000 0.000000 -5.000000
v 7.500000 0.000000 -2.500000
v 2.500000 0.000000 -2.500000
v 2.500000 0.000000 -7.500000
v -2.500000 0.000000 -2.500000
v -7.500000 0.000000 -2.500000
v -7.500000 0.000000 -7.500000
v -2.500000 0.000000 7.500000
v -7.500000 0.000000 7.500000
v -7.500000 0.000000 2.500000
v 7.500000 0.000000 7.500000
v 2.500000 0.000000 7.500000
v 2.500000 0.000000 2.500000
v 7.500000 0.000000 2.500000
v -2.500000 0.000000 2.500000
v -2.500000 0.000000 -7.500000
v 7.500000 0.000000 -7.500000
vt 0.864664 0.663993
vt 0.841170 0.687488
vt 0.841170 0.663993
vt 0.770686 0.663993
vt 0.747191 0.687488
vt 0.747191 0.663993
vt 0.770686 0.570015
vt 0.747191 0.593510
vt 0.747191 0.570015
vt 0.864664 0.570015
vt 0.841170 0.593510
vt 0.841170 0.570015
vt 0.817675 0.570015
vt 0.794181 0.593510
vt 0.794181 0.570015
vt 0.817675 0.523026
vt 0.794181 0.546521
vt 0.794181 0.523026
vt 0.841170 0.523026
vt 0.864664 0.546521
vt 0.841170 0.546521
vt 0.723697 0.570015
vt 0.700202 0.593510
vt 0.700202 0.570015
vt 0.723697 0.523026
vt 0.700202 0.546521
vt 0.700202 0.523026
vt 0.770686 0.523026
vt 0.747191 0.546521
vt 0.747191 0.523026
vt 0.723697 0.663993
vt 0.700202 0.687488
vt 0.700202 0.663993
vt 0.723697 0.617004
vt 0.700202 0.640499
vt 0.700202 0.617004
vt 0.770686 0.617004
vt 0.747191 0.640499
vt 0.747191 0.617004
vt 0.817675 0.663993
vt 0.794181 0.687488
vt 0.794181 0.663993
vt 0.817675 0.617004
vt 0.794181 0.640499
vt 0.794181 0.617004
vt 0.864664 0.617004
vt 0.841170 0.640499
vt 0.841170 0.617004
vt 0.817675 0.640499
vt 0.817675 0.593510
vt 0.864664 0.593510
vt 0.770686 0.640499
vt 0.770686 0.593510
vt 0.770686 0.687488
vt 0.723697 0.640499
vt 0.723697 0.593510
vt 0.676708 0.640499
vt 0.676708 0.617004
vt 0.676708 0.593510
vt 0.676708 0.663993
vt 0.676708 0.687488
vt 0.723697 0.546521
vt 0.723697 0.499531
vt 0.747191 0.499531
vt 0.676708 0.523026
vt 0.676708 0.546521
vt 0.676708 0.499531
vt 0.700202 0.499531
vt 0.676708 0.570015
vt 0.817675 0.546521
vt 0.817675 0.499531
vt 0.864664 0.499531
vt 0.841170 0.499531
vt 0.770686 0.546521
vt 0.770686 0.499531
vt 0.794181 0.499531
vt 0.723697 0.687488
vt 0.817675 0.687488
vt 0.864664 0.687488
vt 0.864664 0.523026
vt 0.864664 0.640499
vn 0.0000 1.0000 0.0000
s off
f 28/1/1 45/2/1 81/3/1
f 34/4/1 41/5/1 80/6/1
f 35/7/1 48/8/1 79/9/1
f 32/10/1 49/11/1 78/12/1
f 50/13/1 37/14/1 77/15/1
f 51/16/1 52/17/1 76/18/1
f 75/19/1 16/20/1 53/21/1
f 54/22/1 36/23/1 74/24/1
f 55/25/1 56/26/1 73/27/1
f 47/28/1 57/29/1 72/30/1
f 58/31/1 29/32/1 71/33/1
f 59/34/1 60/35/1 70/36/1
f 46/37/1 61/38/1 69/39/1
f 62/40/1 33/41/1 68/42/1
f 63/43/1 64/44/1 67/45/1
f 40/46/1 65/47/1 66/48/1
f 66/48/1 25/49/1 63/43/1
f 49/11/1 63/43/1 21/50/1
f 7/51/1 66/48/1 49/11/1
f 67/45/1 18/52/1 46/37/1
f 37/14/1 46/37/1 9/53/1
f 21/50/1 67/45/1 37/14/1
f 34/4/1 33/41/1 8/54/1
f 64/44/1 34/4/1 18/52/1
f 25/49/1 68/42/1 64/44/1
f 69/39/1 24/55/1 59/34/1
f 48/8/1 59/34/1 20/56/1
f 9/53/1 69/39/1 48/8/1
f 70/36/1 14/57/1 30/58/1
f 5/59/1 70/36/1 30/58/1
f 20/56/1 70/36/1 36/23/1
f 42/60/1 29/32/1 3/61/1
f 14/57/1 71/33/1 42/60/1
f 24/55/1 71/33/1 60/35/1
f 72/30/1 23/62/1 55/25/1
f 15/63/1 72/30/1 55/25/1
f 31/64/1 47/28/1 72/30/1
f 26/65/1 56/26/1 10/66/1
f 1/67/1 73/27/1 26/65/1
f 43/68/1 55/25/1 73/27/1
f 38/69/1 36/23/1 5/59/1
f 10/66/1 74/24/1 38/69/1
f 23/62/1 74/24/1 56/26/1
f 75/19/1 22/70/1 51/16/1
f 11/71/1 75/19/1 51/16/1
f 2/72/1 75/19/1 27/73/1
f 76/18/1 19/74/1 47/28/1
f 6/75/1 76/18/1 47/28/1
f 39/76/1 51/16/1 76/18/1
f 77/15/1 9/53/1 35/7/1
f 52/17/1 35/7/1 19/74/1
f 22/70/1 77/15/1 52/17/1
f 78/12/1 21/50/1 50/13/1
f 53/21/1 50/13/1 22/70/1
f 16/20/1 78/12/1 53/21/1
f 79/9/1 20/56/1 54/22/1
f 57/29/1 54/22/1 23/62/1
f 19/74/1 79/9/1 57/29/1
f 58/31/1 41/5/1 13/77/1
f 61/38/1 58/31/1 24/55/1
f 18/52/1 80/6/1 61/38/1
f 81/3/1 17/78/1 62/40/1
f 65/47/1 62/40/1 25/49/1
f 65/47/1 28/1/1 81/3/1
f 28/1/1 4/79/1 45/2/1
f 34/4/1 8/54/1 41/5/1
f 35/7/1 9/53/1 48/8/1
f 32/10/1 7/51/1 49/11/1
f 50/13/1 21/50/1 37/14/1
f 51/16/1 22/70/1 52/17/1
f 75/19/1 44/80/1 16/20/1
f 54/22/1 20/56/1 36/23/1
f 55/25/1 23/62/1 56/26/1
f 47/28/1 19/74/1 57/29/1
f 58/31/1 13/77/1 29/32/1
f 59/34/1 24/55/1 60/35/1
f 46/37/1 18/52/1 61/38/1
f 62/40/1 17/78/1 33/41/1
f 63/43/1 25/49/1 64/44/1
f 40/46/1 12/81/1 65/47/1
f 66/48/1 65/47/1 25/49/1
f 49/11/1 66/48/1 63/43/1
f 7/51/1 40/46/1 66/48/1
f 67/45/1 64/44/1 18/52/1
f 37/14/1 67/45/1 46/37/1
f 21/50/1 63/43/1 67/45/1
f 34/4/1 68/42/1 33/41/1
f 64/44/1 68/42/1 34/4/1
f 25/49/1 62/40/1 68/42/1
f 69/39/1 61/38/1 24/55/1
f 48/8/1 69/39/1 59/34/1
f 9/53/1 46/37/1 69/39/1
f 70/36/1 60/35/1 14/57/1
f 5/59/1 36/23/1 70/36/1
f 20/56/1 59/34/1 70/36/1
f 42/60/1 71/33/1 29/32/1
f 14/57/1 60/35/1 71/33/1
f 24/55/1 58/31/1 71/33/1
f 72/30/1 57/29/1 23/62/1
f 15/63/1 31/64/1 72/30/1
f 31/64/1 6/75/1 47/28/1
f 26/65/1 73/27/1 56/26/1
f 1/67/1 43/68/1 73/27/1
f 43/68/1 15/63/1 55/25/1
f 38/69/1 74/24/1 36/23/1
f 10/66/1 56/26/1 74/24/1
f 23/62/1 54/22/1 74/24/1
f 75/19/1 53/21/1 22/70/1
f 11/71/1 27/73/1 75/19/1
f 2/72/1 44/80/1 75/19/1
f 76/18/1 52/17/1 19/74/1
f 6/75/1 39/76/1 76/18/1
f 39/76/1 11/71/1 51/16/1
f 77/15/1 37/14/1 9/53/1
f 52/17/1 77/15/1 35/7/1
f 22/70/1 50/13/1 77/15/1
f 78/12/1 49/11/1 21/50/1
f 53/21/1 78/12/1 50/13/1
f 16/20/1 32/10/1 78/12/1
f 79/9/1 48/8/1 20/56/1
f 57/29/1 79/9/1 54/22/1
f 19/74/1 35/7/1 79/9/1
f 58/31/1 80/6/1 41/5/1
f 61/38/1 80/6/1 58/31/1
f 18/52/1 34/4/1 80/6/1
f 81/3/1 45/2/1 17/78/1
f 65/47/1 81/3/1 62/40/1
f 65/47/1 12/81/1 28/1/1
