# Blender v3.5.0 OBJ File: 'street.blend'
# www.blender.org
o Cube_Cube.001
v -0.100000 0.000000 10.000000
v -0.100000 2.000000 10.000000
v -0.100000 0.000000 -10.000000
v -0.100000 2.000000 -10.000000
v 0.100000 0.000000 10.000000
v 0.100000 2.000000 10.000000
v 0.100000 0.000000 -10.000000
v 0.100000 2.000000 -10.000000
v -0.100000 0.000000 0.000000
v -0.100000 1.000000 10.000000
v -0.100000 2.000000 0.000000
v -0.100000 1.000000 -10.000000
v 0.000000 0.000000 -10.000000
v 0.000000 2.000000 -10.000000
v 0.100000 1.000000 -10.000000
v 0.100000 0.000000 0.000000
v 0.100000 2.000000 0.000000
v 0.100000 1.000000 10.000000
v 0.000000 0.000000 10.000000
v 0.000000 2.000000 10.000000
v 0.000000 2.000000 0.000000
v 0.000000 0.000000 0.000000
v 0.000000 1.000000 10.000000
v 0.100000 1.000000 0.000000
v 0.000000 1.000000 -10.000000
v -0.100000 1.000000 0.000000
v -0.100000 0.000000 5.000000
v -0.100000 1.500000 10.000000
v -0.100000 2.000000 -5.000000
v -0.100000 0.500000 -10.000000
v -0.050000 0.000000 -10.000000
v 0.050000 2.000000 -10.000000
v 0.100000 0.500000 -10.000000
v 0.100000 0.000000 -5.000000
v 0.100000 2.000000 5.000000
v 0.100000 0.500000 10.000000
v 0.050000 0.000000 10.000000
v -0.050000 2.000000 10.000000
v -0.100000 0.000000 -5.000000
v -0.100000 0.500000 10.000000
v -0.100000 2.000000 5.000000
v -0.100000 1.500000 -10.000000
v 0.050000 0.000000 -10.000000
v -0.050000 2.000000 -10.000000
v 0.100000 1.500000 -10.000000
v 0.100000 0.000000 5.000000
v 0.100000 2.000000 -5.000000
v 0.100000 1.500000 10.000000
v -0.050000 0.000000 10.000000
v 0.050000 2.000000 10.000000
v 0.000000 2.000000 5.000000
v 0.000000 2.000000 -5.000000
v 0.050000 2.000000 0.000000
v -0.050000 2.000000 0.000000
v 0.000000 0.000000 5.000000
v 0.000000 0.000000 -5.000000
v -0.050000 0.000000 0.000000
v 0.050000 0.000000 0.000000
v -0.050000 1.000000 10.000000
v 0.050000 1.000000 10.000000
v 0.000000 0.500000 10.000000
v 0.000000 1.500000 10.000000
v 0.100000 1.000000 5.000000
v 0.100000 1.000000 -5.000000
v 0.100000 0.500000 0.000000
v 0.100000 1.500000 0.000000
v 0.050000 1.000000 -10.000000
v -0.050000 1.000000 -10.000000
v 0.000000 0.500000 -10.000000
v 0.000000 1.500000 -10.000000
v -0.100000 1.000000 -5.000000
v -0.100000 1.000000 5.000000
v -0.100000 0.500000 0.000000
v -0.100000 1.500000 0.000000
v -0.100000 1.500000 5.000000
v -0.100000 0.500000 5.000000
v -0.100000 0.500000 -5.000000
v -0.050000 1.500000 -10.000000
v -0.050000 0.500000 -10.000000
v 0.050000 0.500000 -10.000000
v 0.100000 1.500000 -5.000000
v 0.100000 0.500000 -5.000000
v 0.100000 0.500000 5.000000
v 0.050000 1.500000 10.000000
v 0.050000 0.500000 10.000000
v -0.050000 0.500000 10.000000
v 0.050000 0.000000 -5.000000
v -0.050000 0.000000 -5.000000
v -0.050000 0.000000 5.000000
v -0.050000 2.000000 -5.000000
v 0.050000 2.000000 -5.000000
v 0.050000 2.000000 5.000000
v -0.050000 2.000000 5.000000
v 0.050000 0.000000 5.000000
v -0.050000 1.500000 10.000000
v 0.100000 1.500000 5.000000
v 0.050000 1.500000 -10.000000
v -0.100000 1.500000 -5.000000
vt 0.651777 0.021090
vt 0.867595 0.453990
vt 0.867595 0.021090
vt 0.952620 0.350178
vt 0.862727 0.440071
vt 0.862727 0.350178
vt 0.681670 0.020652
vt 0.855951 0.455749
vt 0.855951 0.020652
vt 0.916437 0.298819
vt 0.853937 0.361319
vt 0.853937 0.298819
vt 0.898437 0.296875
vt 0.835937 0.359375
vt 0.835937 0.296875
vt 0.962557 0.360007
vt 0.861704 0.460860
vt 0.861704 0.360007
vt 0.760851 0.360007
vt 0.659998 0.460860
vt 0.659998 0.360007
vt 0.760851 0.158301
vt 0.659998 0.259154
vt 0.659998 0.158301
vt 0.962557 0.158301
vt 0.861704 0.259154
vt 0.861704 0.158301
vt 0.773437 0.296875
vt 0.710937 0.359375
vt 0.710937 0.296875
vt 0.773437 0.171875
vt 0.710937 0.234375
vt 0.710937 0.171875
vt 0.898437 0.171875
vt 0.835937 0.234375
vt 0.835937 0.171875
vt 0.791437 0.298819
vt 0.728937 0.361319
vt 0.728937 0.298819
vt 0.791437 0.173819
vt 0.728937 0.236319
vt 0.728937 0.173819
vt 0.916437 0.173819
vt 0.853937 0.236319
vt 0.853937 0.173819
vt 0.679589 0.020652
vt 0.853870 0.455749
vt 0.853870 0.020652
vt 0.679589 0.028415
vt 0.853870 0.463512
vt 0.853870 0.028415
vt 0.681670 0.028415
vt 0.855951 0.463512
vt 0.855951 0.028415
vt 0.772835 0.350178
vt 0.682942 0.440071
vt 0.682942 0.350178
vt 0.772835 0.170393
vt 0.682942 0.260285
vt 0.682942 0.170393
vt 0.952620 0.170393
vt 0.862727 0.260285
vt 0.862727 0.170393
vt 0.653473 0.021090
vt 0.867204 0.453990
vt 0.867204 0.021090
vt 0.653473 0.020291
vt 0.867204 0.453192
vt 0.867204 0.020291
vt 0.651777 0.020291
vt 0.867595 0.453192
vt 0.867595 0.020291
vt 0.653473 0.453192
vt 0.867595 0.448132
vt 0.653473 0.448132
vt 0.651777 0.448132
vt 0.655169 0.453192
vt 0.655169 0.020291
vt 0.867204 0.448132
vt 0.655169 0.448132
vt 0.655169 0.453990
vt 0.655169 0.021090
vt 0.772835 0.260285
vt 0.862727 0.080500
vt 0.772835 0.080500
vt 0.952620 0.080500
vt 0.593049 0.260285
vt 0.593049 0.170393
vt 0.682942 0.080500
vt 0.593049 0.080500
vt 0.593049 0.440071
vt 0.593049 0.350178
vt 0.679589 0.463512
vt 0.855951 0.462710
vt 0.679589 0.462710
vt 0.681670 0.462710
vt 0.675754 0.463512
vt 0.675754 0.028415
vt 0.853870 0.462710
vt 0.675754 0.462710
vt 0.675754 0.455749
vt 0.675754 0.020652
vt 0.791437 0.236319
vt 0.853937 0.111319
vt 0.791437 0.111319
vt 0.916437 0.111319
vt 0.666437 0.236319
vt 0.666437 0.173819
vt 0.728937 0.111319
vt 0.666437 0.111319
vt 0.666437 0.361319
vt 0.666437 0.298819
vt 0.773437 0.234375
vt 0.835937 0.109375
vt 0.773437 0.109375
vt 0.898437 0.109375
vt 0.648437 0.234375
vt 0.648437 0.171875
vt 0.710937 0.109375
vt 0.648437 0.109375
vt 0.648437 0.359375
vt 0.648437 0.296875
vt 0.760851 0.259154
vt 0.861704 0.057448
vt 0.760851 0.057448
vt 0.962557 0.057448
vt 0.559145 0.259154
vt 0.559145 0.158301
vt 0.659998 0.057448
vt 0.559145 0.057448
vt 0.559145 0.460860
vt 0.559145 0.360007
vt 0.760851 0.460860
vt 0.962557 0.259154
vt 0.773437 0.359375
vt 0.898437 0.234375
vt 0.791437 0.361319
vt 0.916437 0.236319
vt 0.679589 0.455749
vt 0.681670 0.463512
vt 0.772835 0.440071
vt 0.952620 0.260285
vt 0.653473 0.453990
vt 0.651777 0.453192
vt 0.651777 0.453990
vt 0.952620 0.440071
vt 0.681670 0.455749
vt 0.916437 0.361319
vt 0.898437 0.359375
vt 0.962557 0.460860
vn -1.0000 0.0000 0.0000
vn 0.0000 0.0000 -1.0000
vn 1.0000 0.0000 0.0000
vn 0.0000 0.0000 1.0000
vn 0.0000 -1.0000 0.0000
vn 0.0000 1.0000 0.0000
s off
f 29/1/1 42/2/1 98/3/1
f 32/4/2 45/5/2 97/6/2
f 35/7/3 48/8/3 96/9/3
f 38/10/4 28/11/4 95/12/4
f 46/13/5 37/14/5 94/15/5
f 41/16/6 38/17/6 93/18/6
f 51/19/6 50/20/6 92/21/6
f 52/22/6 53/23/6 91/24/6
f 29/25/6 54/26/6 90/27/6
f 55/28/5 49/29/5 89/30/5
f 56/31/5 57/32/5 88/33/5
f 34/34/5 58/35/5 87/36/5
f 59/37/4 40/38/4 86/39/4
f 60/40/4 61/41/4 85/42/4
f 50/43/4 62/44/4 84/45/4
f 63/46/3 36/47/3 83/48/3
f 64/49/3 65/50/3 82/51/3
f 47/52/3 66/53/3 81/54/3
f 67/55/2 33/56/2 80/57/2
f 68/58/2 69/59/2 79/60/2
f 44/61/2 70/62/2 78/63/2
f 71/64/1 30/65/1 77/66/1
f 72/67/1 73/68/1 76/69/1
f 41/70/1 74/71/1 75/72/1
f 75/72/1 26/73/1 72/67/1
f 28/74/1 72/67/1 10/75/1
f 2/76/1 75/72/1 28/74/1
f 76/69/1 9/77/1 27/78/1
f 40/79/1 27/78/1 1/80/1
f 10/75/1 76/69/1 40/79/1
f 77/66/1 3/81/1 39/82/1
f 73/68/1 39/82/1 9/77/1
f 26/73/1 77/66/1 73/68/1
f 78/63/2 25/83/2 68/58/2
f 42/84/2 68/58/2 12/85/2
f 4/86/2 78/63/2 42/84/2
f 79/60/2 13/87/2 31/88/2
f 30/89/2 31/88/2 3/90/2
f 12/85/2 79/60/2 30/89/2
f 80/57/2 7/91/2 43/92/2
f 69/59/2 43/92/2 13/87/2
f 25/83/2 80/57/2 69/59/2
f 81/54/3 24/93/3 64/49/3
f 45/94/3 64/49/3 15/95/3
f 8/96/3 81/54/3 45/94/3
f 82/51/3 16/97/3 34/98/3
f 33/99/3 34/98/3 7/100/3
f 15/95/3 82/51/3 33/99/3
f 83/48/3 5/101/3 46/102/3
f 65/50/3 46/102/3 16/97/3
f 24/93/3 83/48/3 65/50/3
f 84/45/4 23/103/4 60/40/4
f 48/104/4 60/40/4 18/105/4
f 6/106/4 84/45/4 48/104/4
f 85/42/4 19/107/4 37/108/4
f 36/109/4 37/108/4 5/110/4
f 18/105/4 85/42/4 36/109/4
f 86/39/4 1/111/4 49/112/4
f 61/41/4 49/112/4 19/107/4
f 23/103/4 86/39/4 61/41/4
f 87/36/5 22/113/5 56/31/5
f 43/114/5 56/31/5 13/115/5
f 7/116/5 87/36/5 43/114/5
f 88/33/5 9/117/5 39/118/5
f 31/119/5 39/118/5 3/120/5
f 13/115/5 88/33/5 31/119/5
f 89/30/5 1/121/5 27/122/5
f 57/32/5 27/122/5 9/117/5
f 22/113/5 89/30/5 57/32/5
f 90/27/6 21/123/6 52/22/6
f 44/124/6 52/22/6 14/125/6
f 4/126/6 90/27/6 44/124/6
f 91/24/6 17/127/6 47/128/6
f 32/129/6 47/128/6 8/130/6
f 14/125/6 91/24/6 32/129/6
f 92/21/6 6/131/6 35/132/6
f 53/23/6 35/132/6 17/127/6
f 21/123/6 92/21/6 53/23/6
f 93/18/6 20/133/6 51/19/6
f 54/26/6 51/19/6 21/123/6
f 11/134/6 93/18/6 54/26/6
f 94/15/5 19/135/5 55/28/5
f 58/35/5 55/28/5 22/113/5
f 16/136/5 94/15/5 58/35/5
f 95/12/4 10/137/4 59/37/4
f 62/44/4 59/37/4 23/103/4
f 20/138/4 95/12/4 62/44/4
f 96/9/3 18/139/3 63/46/3
f 66/53/3 63/46/3 24/93/3
f 17/140/3 96/9/3 66/53/3
f 97/6/2 15/141/2 67/55/2
f 70/62/2 67/55/2 25/83/2
f 14/142/2 97/6/2 70/62/2
f 98/3/1 12/143/1 71/64/1
f 74/71/1 71/64/1 26/73/1
f 11/144/1 98/3/1 74/71/1
f 29/1/1 4/145/1 42/2/1
f 32/4/2 8/146/2 45/5/2
f 35/7/3 6/147/3 48/8/3
f 38/10/4 2/148/4 28/11/4
f 46/13/5 5/149/5 37/14/5
f 41/16/6 2/150/6 38/17/6
f 51/19/6 20/133/6 50/20/6
f 52/22/6 21/123/6 53/23/6
f 29/25/6 11/134/6 54/26/6
f 55/28/5 19/135/5 49/29/5
f 56/31/5 22/113/5 57/32/5
f 34/34/5 16/136/5 58/35/5
f 59/37/4 10/137/4 40/38/4
f 60/40/4 23/103/4 61/41/4
f 50/43/4 20/138/4 62/44/4
f 63/46/3 18/139/3 36/47/3
f 64/49/3 24/93/3 65/50/3
f 47/52/3 17/140/3 66/53/3
f 67/55/2 15/141/2 33/56/2
f 68/58/2 25/83/2 69/59/2
f 44/61/2 14/142/2 70/62/2
f 71/64/1 12/143/1 30/65/1
f 72/67/1 26/73/1 73/68/1
f 41/70/1 11/144/1 74/71/1
f 75/72/1 74/71/1 26/73/1
f 28/74/1 75/72/1 72/67/1
f 2/76/1 41/70/1 75/72/1
f 76/69/1 73/68/1 9/77/1
f 40/79/1 76/69/1 27/78/1
f 10/75/1 72/67/1 76/69/1
f 77/66/1 30/65/1 3/81/1
f 73/68/1 77/66/1 39/82/1
f 26/73/1 71/64/1 77/66/1
f 78/63/2 70/62/2 25/83/2
f 42/84/2 78/63/2 68/58/2
f 4/86/2 44/61/2 78/63/2
f 79/60/2 69/59/2 13/87/2
f 30/89/2 79/60/2 31/88/2
f 12/85/2 68/58/2 79/60/2
f 80/57/2 33/56/2 7/91/2
f 69/59/2 80/57/2 43/92/2
f 25/83/2 67/55/2 80/57/2
f 81/54/3 66/53/3 24/93/3
f 45/94/3 81/54/3 64/49/3
f 8/96/3 47/52/3 81/54/3
f 82/51/3 65/50/3 16/97/3
f 33/99/3 82/51/3 34/98/3
f 15/95/3 64/49/3 82/51/3
f 83/48/3 36/47/3 5/101/3
f 65/50/3 83/48/3 46/102/3
f 24/93/3 63/46/3 83/48/3
f 84/45/4 62/44/4 23/103/4
f 48/104/4 84/45/4 60/40/4
f 6/106/4 50/43/4 84/45/4
f 85/42/4 61/41/4 19/107/4
f 36/109/4 85/42/4 37/108/4
f 18/105/4 60/40/4 85/42/4
f 86/39/4 40/38/4 1/111/4
f 61/41/4 86/39/4 49/112/4
f 23/103/4 59/37/4 86/39/4
f 87/36/5 58/35/5 22/113/5
f 43/114/5 87/36/5 56/31/5
f 7/116/5 34/34/5 87/36/5
f 88/33/5 57/32/5 9/117/5
f 31/119/5 88/33/5 39/118/5
f 13/115/5 56/31/5 88/33/5
f 89/30/5 49/29/5 1/121/5
f 57/32/5 89/30/5 27/122/5
f 22/113/5 55/28/5 89/30/5
f 90/27/6 54/26/6 21/123/6
f 44/124/6 90/27/6 52/22/6
f 4/126/6 29/25/6 90/27/6
f 91/24/6 53/23/6 17/127/6
f 32/129/6 91/24/6 47/128/6
f 14/125/6 52/22/6 91/24/6
f 92/21/6 50/20/6 6/131/6
f 53/23/6 92/21/6 35/132/6
f 21/123/6 51/19/6 92/21/6
f 93/18/6 38/17/6 20/133/6
f 54/26/6 93/18/6 51/19/6
f 11/134/6 41/16/6 93/18/6
f 94/15/5 37/14/5 19/135/5
f 58/35/5 94/15/5 55/28/5
f 16/136/5 46/13/5 94/15/5
f 95/12/4 28/11/4 10/137/4
f 62/44/4 95/12/4 59/37/4
f 20/138/4 38/10/4 95/12/4
f 96/9/3 48/8/3 18/139/3
f 66/53/3 96/9/3 63/46/3
f 17/140/3 35/7/3 96/9/3
f 97/6/2 45/5/2 15/141/2
f 70/62/2 97/6/2 67/55/2
f 14/142/2 32/4/2 97/6/2
f 98/3/1 42/2/1 12/143/1
f 74/71/1 98/3/1 71/64/1
f 11/144/1 29/1/1 98/3/1
