# Blender v3.5.0 OBJ File: 'flag.blend'
# www.blender.org
o Cube
v 0.100000 2.000000 -0.100000
v 0.100000 -2.000000 -0.100000
v 0.100000 2.000000 0.100000
v 0.100000 -2.000000 0.100000
v -0.100000 2.000000 -0.100000
v -0.100000 -2.000000 -0.100000
v -0.100000 2.000000 0.100000
v -0.100000 -2.000000 0.100000
v -0.100000 -2.000000 0.000000
v 0.000000 -2.000000 -0.100000
v 0.100000 0.000000 -0.100000
v -0.100000 0.000000 0.100000
v 0.100000 0.000000 0.100000
v -0.100000 0.000000 -0.100000
v 0.000000 2.000000 0.100000
v 0.100000 2.000000 0.000000
v 0.000000 -2.000000 0.100000
v -0.100000 2.000000 0.000000
v 0.000000 2.000000 -0.100000
v 0.100000 -2.000000 0.000000
v 0.000000 0.000000 -0.100000
v 0.100000 0.000000 0.000000
v 0.000000 -2.000000 0.000000
v -0.100000 0.000000 0.000000
v 0.000000 0.000000 0.100000
v 0.000000 2.000000 0.000000
v -0.100000 -2.000000 0.050000
v -0.050000 -2.000000 -0.100000
v 0.100000 -1.000000 -0.100000
v -0.100000 1.000000 0.100000
v 0.100000 -1.000000 0.100000
v -0.100000 -1.000000 -0.100000
v -0.050000 2.000000 0.100000
v 0.100000 2.000000 0.050000
v 0.050000 -2.000000 0.100000
v -0.100000 2.000000 -0.050000
v 0.050000 2.000000 -0.100000
v 0.100000 -2.000000 -0.050000
v -0.100000 -2.000000 -0.050000
v 0.050000 -2.000000 -0.100000
v 0.100000 1.000000 -0.100000
v -0.100000 -1.000000 0.100000
v 0.100000 1.000000 0.100000
v -0.100000 1.000000 -0.100000
v 0.050000 2.000000 0.100000
v 0.100000 2.000000 -0.050000
v -0.050000 -2.000000 0.100000
v -0.100000 2.000000 0.050000
v -0.050000 2.000000 -0.100000
v 0.100000 -2.000000 0.050000
v 0.050000 0.000000 -0.100000
v -0.050000 0.000000 -0.100000
v 0.000000 -1.000000 -0.100000
v 0.100000 0.000000 0.050000
v 0.100000 0.000000 -0.050000
v 0.100000 -1.000000 0.000000
v 0.100000 1.000000 0.000000
v 0.000000 -2.000000 0.050000
v 0.000000 -2.000000 -0.050000
v -0.050000 -2.000000 0.000000
v 0.050000 -2.000000 0.000000
v -0.100000 0.000000 -0.050000
v -0.100000 0.000000 0.050000
v -0.100000 -1.000000 0.000000
v -0.100000 1.000000 0.000000
v -0.050000 0.000000 0.100000
v 0.050000 0.000000 0.100000
v 0.000000 -1.000000 0.100000
v 0.000000 1.000000 0.100000
v 0.000000 2.000000 0.050000
v 0.000000 2.000000 -0.050000
v 0.050000 2.000000 0.000000
v -0.050000 2.000000 0.000000
v -0.050000 2.000000 -0.050000
v 0.050000 2.000000 -0.050000
v 0.050000 2.000000 0.050000
v 0.050000 1.000000 0.100000
v 0.050000 -1.000000 0.100000
v -0.050000 -1.000000 0.100000
v -0.100000 1.000000 0.050000
v -0.100000 -1.000000 0.050000
v -0.100000 -1.000000 -0.050000
v 0.050000 -2.000000 -0.050000
v -0.050000 -2.000000 -0.050000
v -0.050000 -2.000000 0.050000
v 0.100000 1.000000 -0.050000
v 0.100000 -1.000000 -0.050000
v 0.100000 -1.000000 0.050000
v -0.050000 1.000000 -0.100000
v -0.050000 -1.000000 -0.100000
v 0.050000 -1.000000 -0.100000
v 0.050000 1.000000 -0.100000
v 0.100000 1.000000 0.050000
v 0.050000 -2.000000 0.050000
v -0.100000 1.000000 -0.050000
v -0.050000 1.000000 0.100000
v -0.050000 2.000000 0.050000
v -0.050000 2.000000 -3.104929
v 0.000000 2.000000 -3.104929
v -0.050000 0.000000 -3.104929
v 0.000000 0.000000 -3.104929
v 0.000000 1.000000 -3.104929
v 0.050000 2.000000 -3.104929
v 0.050000 0.000000 -3.104929
v -0.050000 1.000000 -3.104929
v 0.050000 1.000000 -3.104929
vt 0.198739 0.860940
vt 0.198739 0.860940
vt 0.198739 0.860940
vt 0.198739 0.860940
vt 0.198739 0.860940
vt 0.198739 0.860940
vt 0.198739 0.860940
vt 0.198739 0.860940
vt 0.198739 0.860940
vt 0.198739 0.860940
vt 0.198739 0.860940
vt 0.198739 0.860940
vt 0.198739 0.860940
vt 0.198739 0.860940
vt 0.198739 0.860940
vt 0.198739 0.860940
vt 0.198739 0.860940
vt 0.198739 0.860940
vt 0.198739 0.860940
vt 0.198739 0.860940
vt 0.198739 0.860940
vt 0.198739 0.860940
vt 0.198739 0.860940
vt 0.400945 0.893262
vt 0.400945 0.893262
vt 0.400945 0.893262
vt 0.198739 0.860940
vt 0.198739 0.860940
vt 0.198739 0.860940
vt 0.198739 0.860940
vt 0.198739 0.860940
vt 0.198739 0.860940
vt 0.198739 0.860940
vt 0.198739 0.860940
vt 0.198739 0.860940
vt 0.198739 0.860940
vt 0.198739 0.860940
vt 0.198739 0.860940
vt 0.198739 0.860940
vt 0.198739 0.860940
vt 0.198739 0.860940
vt 0.198739 0.860940
vt 0.198739 0.860940
vt 0.198739 0.860940
vt 0.198739 0.860940
vt 0.198739 0.860940
vt 0.198739 0.860940
vt 0.198739 0.860940
vt 0.198739 0.860940
vt 0.198739 0.860940
vt 0.198739 0.860940
vt 0.198739 0.860940
vt 0.198739 0.860940
vt 0.198739 0.860940
vt 0.198739 0.860940
vt 0.198739 0.860940
vt 0.198739 0.860940
vt 0.198739 0.860940
vt 0.198739 0.860940
vt 0.198739 0.860940
vt 0.198739 0.860940
vt 0.198739 0.860940
vt 0.198739 0.860940
vt 0.198739 0.860940
vt 0.198739 0.860940
vt 0.198739 0.860940
vt 0.198739 0.860940
vt 0.198739 0.860940
vt 0.198739 0.860940
vt 0.198739 0.860940
vt 0.198739 0.860940
vt 0.198739 0.860940
vt 0.198739 0.860940
vt 0.198739 0.860940
vt 0.198739 0.860940
vt 0.198739 0.860940
vt 0.198739 0.860940
vt 0.198739 0.860940
vt 0.198739 0.860940
vt 0.198739 0.860940
vt 0.198739 0.860940
vt 0.198739 0.860940
vt 0.198739 0.860940
vt 0.198739 0.860940
vt 0.198739 0.860940
vt 0.198739 0.860940
vt 0.198739 0.860940
vt 0.198739 0.860940
vt 0.198739 0.860940
vt 0.198739 0.860940
vt 0.198739 0.860940
vt 0.198739 0.860940
vt 0.198739 0.860940
vt 0.198739 0.860940
vt 0.198739 0.860940
vt 0.400945 0.893262
vt 0.400945 0.893262
vt 0.400945 0.893262
vt 0.198739 0.860940
vt 0.198739 0.860940
vt 0.198739 0.860940
vt 0.425787 0.698451
vt 0.057510 0.571828
vt 0.427335 0.574229
vt 0.048549 0.449810
vt 0.421350 0.578571
vt 0.045886 0.575240
vt 0.198739 0.860940
vt 0.198739 0.860940
vt 0.400945 0.893262
vt 0.400945 0.893262
vt 0.400945 0.893262
vt 0.400945 0.893262
vt 0.400945 0.893262
vt 0.400945 0.893262
vt 0.418688 0.704001
vt 0.043224 0.700671
vt 0.400945 0.893262
vt 0.059058 0.447607
vt 0.428883 0.450008
vt 0.400945 0.893262
vt 0.400945 0.893262
vt 0.055962 0.696050
vt 0.424012 0.453140
vn 0.0000 1.0000 0.0000
vn 0.0000 0.0000 1.0000
vn -1.0000 0.0000 0.0000
vn 0.0000 -1.0000 0.0000
vn 1.0000 0.0000 0.0000
vn 0.0000 0.0000 -1.0000
s off
f 48/1/1 33/2/1 97/3/1
f 33/2/2 30/4/2 96/5/2
f 36/6/3 44/7/3 95/8/3
f 50/9/4 35/10/4 94/11/4
f 34/12/5 43/13/5 93/14/5
f 37/15/6 41/16/6 92/17/6
f 51/18/6 29/19/6 91/20/6
f 52/21/6 53/22/6 90/23/6
f 37/24/1 99/25/1 19/26/1
f 54/27/5 31/28/5 88/29/5
f 55/30/5 56/31/5 87/32/5
f 46/33/5 57/34/5 86/35/5
f 58/36/4 47/37/4 85/38/4
f 59/39/4 60/40/4 84/41/4
f 38/42/4 61/43/4 83/44/4
f 62/45/3 32/46/3 82/47/3
f 63/48/3 64/49/3 81/50/3
f 48/1/3 65/51/3 80/52/3
f 66/53/2 42/54/2 79/55/2
f 67/56/2 68/57/2 78/58/2
f 45/59/2 69/60/2 77/61/2
f 70/62/1 45/59/1 76/63/1
f 71/64/1 72/65/1 75/66/1
f 36/6/1 73/67/1 74/68/1
f 74/68/1 26/69/1 71/64/1
f 49/70/1 71/64/1 19/71/1
f 5/72/1 74/68/1 49/70/1
f 75/66/1 16/73/1 46/33/1
f 37/15/1 46/33/1 1/74/1
f 19/71/1 75/66/1 37/15/1
f 76/63/1 3/75/1 34/12/1
f 72/65/1 34/12/1 16/73/1
f 26/69/1 76/63/1 72/65/1
f 77/61/2 25/76/2 67/56/2
f 43/13/2 67/56/2 13/77/2
f 3/75/2 77/61/2 43/13/2
f 78/58/2 17/78/2 35/10/2
f 31/28/2 35/10/2 4/79/2
f 13/77/2 78/58/2 31/28/2
f 79/55/2 8/80/2 47/37/2
f 68/57/2 47/37/2 17/78/2
f 25/76/2 79/55/2 68/57/2
f 80/52/3 24/81/3 63/48/3
f 30/4/3 63/48/3 12/82/3
f 7/83/3 80/52/3 30/4/3
f 81/50/3 9/84/3 27/85/3
f 42/54/3 27/85/3 8/80/3
f 12/82/3 81/50/3 42/54/3
f 82/47/3 6/86/3 39/87/3
f 64/49/3 39/87/3 9/84/3
f 24/81/3 82/47/3 64/49/3
f 83/44/4 23/88/4 59/39/4
f 40/89/4 59/39/4 10/90/4
f 2/91/4 83/44/4 40/89/4
f 84/41/4 9/84/4 39/87/4
f 28/92/4 39/87/4 6/86/4
f 10/90/4 84/41/4 28/92/4
f 85/38/4 8/80/4 27/85/4
f 60/40/4 27/85/4 9/84/4
f 23/88/4 85/38/4 60/40/4
f 86/35/5 22/93/5 55/30/5
f 41/16/5 55/30/5 11/94/5
f 1/74/5 86/35/5 41/16/5
f 87/32/5 20/95/5 38/42/5
f 29/19/5 38/42/5 2/91/5
f 11/94/5 87/32/5 29/19/5
f 88/29/5 4/79/5 50/9/5
f 56/31/5 50/9/5 20/95/5
f 22/93/5 88/29/5 56/31/5
f 52/96/4 101/97/4 21/98/4
f 44/7/6 52/21/6 14/99/6
f 5/72/6 89/100/6 44/7/6
f 90/23/6 10/90/6 28/92/6
f 32/46/6 28/92/6 6/86/6
f 14/99/6 90/23/6 32/46/6
f 91/20/6 2/91/6 40/89/6
f 53/22/6 40/89/6 10/90/6
f 21/101/6 91/20/6 53/22/6
f 92/17/6 11/94/6 51/18/6
f 49/102/3 105/103/3 89/104/3
f 51/105/5 106/106/5 92/107/5
f 93/14/5 13/77/5 54/27/5
f 57/34/5 54/27/5 22/93/5
f 16/73/5 93/14/5 57/34/5
f 94/11/4 17/78/4 58/36/4
f 61/43/4 58/36/4 23/88/4
f 20/95/4 94/11/4 61/43/4
f 95/8/3 14/99/3 62/45/3
f 65/51/3 62/45/3 24/81/3
f 18/108/3 95/8/3 65/51/3
f 96/5/2 12/82/2 66/53/2
f 69/60/2 66/53/2 25/76/2
f 15/109/2 96/5/2 69/60/2
f 97/3/1 15/109/1 70/62/1
f 73/67/1 70/62/1 26/69/1
f 18/108/1 97/3/1 73/67/1
f 98/110/6 102/111/6 105/112/6
f 105/112/6 101/97/6 100/113/6
f 102/111/6 104/114/6 101/97/6
f 99/25/6 106/115/6 102/111/6
f 92/107/5 103/116/5 37/117/5
f 21/98/4 104/114/4 51/118/4
f 89/104/3 100/119/3 52/120/3
f 19/26/1 98/110/1 49/121/1
f 48/1/1 7/83/1 33/2/1
f 33/2/2 7/83/2 30/4/2
f 36/6/3 5/72/3 44/7/3
f 50/9/4 4/79/4 35/10/4
f 34/12/5 3/75/5 43/13/5
f 37/15/6 1/74/6 41/16/6
f 51/18/6 11/94/6 29/19/6
f 52/21/6 21/101/6 53/22/6
f 37/24/1 103/122/1 99/25/1
f 54/27/5 13/77/5 31/28/5
f 55/30/5 22/93/5 56/31/5
f 46/33/5 16/73/5 57/34/5
f 58/36/4 17/78/4 47/37/4
f 59/39/4 23/88/4 60/40/4
f 38/42/4 20/95/4 61/43/4
f 62/45/3 14/99/3 32/46/3
f 63/48/3 24/81/3 64/49/3
f 48/1/3 18/108/3 65/51/3
f 66/53/2 12/82/2 42/54/2
f 67/56/2 25/76/2 68/57/2
f 45/59/2 15/109/2 69/60/2
f 70/62/1 15/109/1 45/59/1
f 71/64/1 26/69/1 72/65/1
f 36/6/1 18/108/1 73/67/1
f 74/68/1 73/67/1 26/69/1
f 49/70/1 74/68/1 71/64/1
f 5/72/1 36/6/1 74/68/1
f 75/66/1 72/65/1 16/73/1
f 37/15/1 75/66/1 46/33/1
f 19/71/1 71/64/1 75/66/1
f 76/63/1 45/59/1 3/75/1
f 72/65/1 76/63/1 34/12/1
f 26/69/1 70/62/1 76/63/1
f 77/61/2 69/60/2 25/76/2
f 43/13/2 77/61/2 67/56/2
f 3/75/2 45/59/2 77/61/2
f 78/58/2 68/57/2 17/78/2
f 31/28/2 78/58/2 35/10/2
f 13/77/2 67/56/2 78/58/2
f 79/55/2 42/54/2 8/80/2
f 68/57/2 79/55/2 47/37/2
f 25/76/2 66/53/2 79/55/2
f 80/52/3 65/51/3 24/81/3
f 30/4/3 80/52/3 63/48/3
f 7/83/3 48/1/3 80/52/3
f 81/50/3 64/49/3 9/84/3
f 42/54/3 81/50/3 27/85/3
f 12/82/3 63/48/3 81/50/3
f 82/47/3 32/46/3 6/86/3
f 64/49/3 82/47/3 39/87/3
f 24/81/3 62/45/3 82/47/3
f 83/44/4 61/43/4 23/88/4
f 40/89/4 83/44/4 59/39/4
f 2/91/4 38/42/4 83/44/4
f 84/41/4 60/40/4 9/84/4
f 28/92/4 84/41/4 39/87/4
f 10/90/4 59/39/4 84/41/4
f 85/38/4 47/37/4 8/80/4
f 60/40/4 85/38/4 27/85/4
f 23/88/4 58/36/4 85/38/4
f 86/35/5 57/34/5 22/93/5
f 41/16/5 86/35/5 55/30/5
f 1/74/5 46/33/5 86/35/5
f 87/32/5 56/31/5 20/95/5
f 29/19/5 87/32/5 38/42/5
f 11/94/5 55/30/5 87/32/5
f 88/29/5 31/28/5 4/79/5
f 56/31/5 88/29/5 50/9/5
f 22/93/5 54/27/5 88/29/5
f 52/96/4 100/113/4 101/97/4
f 44/7/6 89/100/6 52/21/6
f 5/72/6 49/70/6 89/100/6
f 90/23/6 53/22/6 10/90/6
f 32/46/6 90/23/6 28/92/6
f 14/99/6 52/21/6 90/23/6
f 91/20/6 29/19/6 2/91/6
f 53/22/6 91/20/6 40/89/6
f 21/101/6 51/18/6 91/20/6
f 92/17/6 41/16/6 11/94/6
f 49/102/3 98/123/3 105/103/3
f 51/105/5 104/124/5 106/106/5
f 93/14/5 43/13/5 13/77/5
f 57/34/5 93/14/5 54/27/5
f 16/73/5 34/12/5 93/14/5
f 94/11/4 35/10/4 17/78/4
f 61/43/4 94/11/4 58/36/4
f 20/95/4 50/9/4 94/11/4
f 95/8/3 44/7/3 14/99/3
f 65/51/3 95/8/3 62/45/3
f 18/108/3 36/6/3 95/8/3
f 96/5/2 30/4/2 12/82/2
f 69/60/2 96/5/2 66/53/2
f 15/109/2 33/2/2 96/5/2
f 97/3/1 33/2/1 15/109/1
f 73/67/1 97/3/1 70/62/1
f 18/108/1 48/1/1 97/3/1
f 98/110/6 99/25/6 102/111/6
f 105/112/6 102/111/6 101/97/6
f 102/111/6 106/115/6 104/114/6
f 99/25/6 103/122/6 106/115/6
f 92/107/5 106/106/5 103/116/5
f 21/98/4 101/97/4 104/114/4
f 89/104/3 105/103/3 100/119/3
f 19/26/1 99/25/1 98/110/1
