# Blender v3.5.0 OBJ File: ''
# www.blender.org
o Cube.001
v -0.050000 2.000000 0.050000
v -0.100000 2.000000 0.050000
v -0.100000 2.000000 0.100000
v -0.050000 2.000000 0.100000
v -0.050000 1.000000 0.100000
v -0.100000 1.000000 0.100000
v -0.100000 1.000000 -0.050000
v -0.100000 2.000000 -0.050000
v -0.100000 2.000000 -0.100000
v -0.100000 1.000000 -0.100000
v 0.050000 -2.000000 0.050000
v 0.100000 -2.000000 0.050000
v 0.100000 -2.000000 0.100000
v 0.050000 -2.000000 0.100000
v 0.100000 1.000000 0.050000
v 0.100000 2.000000 0.050000
v 0.100000 2.000000 0.100000
v 0.100000 1.000000 0.100000
v 0.050000 1.000000 -0.100000
v 0.050000 2.000000 -0.100000
v 0.100000 2.000000 -0.100000
v 0.100000 1.000000 -0.100000
v 0.050000 -1.000000 -0.100000
v 0.050000 -0.000000 -0.100000
v 0.100000 -0.000000 -0.100000
v 0.100000 -1.000000 -0.100000
v -0.050000 -1.000000 -0.100000
v -0.050000 -0.000000 -0.100000
v 0.000000 -0.000000 -0.100000
v 0.000000 -1.000000 -0.100000
v 0.000000 2.000000 -0.100000
v 0.050000 2.000000 -2.489873
v 0.000000 2.000000 -2.489873
v 0.100000 -1.000000 0.050000
v 0.100000 0.000000 0.050000
v 0.100000 0.000000 0.100000
v 0.100000 -1.000000 0.100000
v 0.100000 -1.000000 -0.050000
v 0.100000 -0.000000 -0.050000
v 0.100000 0.000000 0.000000
v 0.100000 -1.000000 0.000000
v 0.100000 1.000000 -0.050000
v 0.100000 2.000000 -0.050000
v 0.100000 2.000000 -0.000000
v 0.100000 1.000000 -0.000000
v -0.050000 -2.000000 0.050000
v 0.000000 -2.000000 0.050000
v 0.000000 -2.000000 0.100000
v -0.050000 -2.000000 0.100000
v -0.050000 -2.000000 -0.050000
v 0.000000 -2.000000 -0.050000
v 0.000000 -2.000000 0.000000
v -0.050000 -2.000000 0.000000
v 0.050000 -2.000000 -0.050000
v 0.100000 -2.000000 -0.050000
v 0.100000 -2.000000 0.000000
v 0.050000 -2.000000 0.000000
v -0.100000 -1.000000 -0.050000
v -0.100000 -0.000000 -0.050000
v -0.100000 -0.000000 -0.100000
v -0.100000 -1.000000 -0.100000
v -0.100000 -1.000000 0.050000
v -0.100000 0.000000 0.050000
v -0.100000 0.000000 0.000000
v -0.100000 -1.000000 0.000000
v -0.100000 1.000000 0.050000
v -0.100000 2.000000 -0.000000
v -0.100000 1.000000 -0.000000
v -0.050000 -1.000000 0.100000
v -0.050000 0.000000 0.100000
v -0.100000 0.000000 0.100000
v -0.100000 -1.000000 0.100000
v 0.050000 -1.000000 0.100000
v 0.050000 0.000000 0.100000
v 0.000000 0.000000 0.100000
v 0.000000 -1.000000 0.100000
v 0.050000 1.000000 0.100000
v 0.050000 2.000000 0.100000
v 0.000000 2.000000 0.100000
v 0.000000 1.000000 0.100000
v 0.050000 2.000000 0.050000
v 0.000000 2.000000 0.050000
v 0.050000 2.000000 -0.050000
v 0.000000 2.000000 -0.050000
v 0.000000 2.000000 -0.000000
v 0.050000 2.000000 -0.000000
v -0.050000 2.000000 -0.050000
v -0.050000 2.000000 -0.000000
v -0.050000 2.000000 -0.100000
v -0.100000 -2.000000 0.100000
v -0.100000 -2.000000 0.050000
v -0.100000 -2.000000 0.000000
v -0.100000 -2.000000 -0.050000
v -0.100000 -2.000000 -0.100000
v 0.000000 -2.000000 -0.100000
v 0.050000 -2.000000 -0.100000
v 0.100000 -2.000000 -0.100000
v -0.050000 -2.000000 -0.100000
v -0.050000 -0.000000 -2.489873
v 0.000000 -0.000000 -2.489873
v -0.050000 1.000000 -0.100000
v -0.050000 2.000000 -2.489873
v -0.050000 1.000000 -2.489873
v 0.050000 -0.000000 -2.489873
v 0.050000 1.000000 -2.489873
v 0.000000 1.000000 -2.489873
vt 0.198739 0.860940
vt 0.198739 0.860940
vt 0.198739 0.860940
vt 0.198739 0.860940
vt 0.198739 0.860940
vt 0.198739 0.860940
vt 0.198739 0.860940
vt 0.198739 0.860940
vt 0.198739 0.860940
vt 0.198739 0.860940
vt 0.198739 0.860940
vt 0.198739 0.860940
vt 0.198739 0.860940
vt 0.198739 0.860940
vt 0.198739 0.860940
vt 0.198739 0.860940
vt 0.198739 0.860940
vt 0.198739 0.860940
vt 0.198739 0.860940
vt 0.198739 0.860940
vt 0.198739 0.860940
vt 0.198739 0.860940
vt 0.198739 0.860940
vt 0.400945 0.893262
vt 0.400945 0.893262
vt 0.400945 0.893262
vt 0.198739 0.860940
vt 0.198739 0.860940
vt 0.198739 0.860940
vt 0.198739 0.860940
vt 0.198739 0.860940
vt 0.198739 0.860940
vt 0.198739 0.860940
vt 0.198739 0.860940
vt 0.198739 0.860940
vt 0.198739 0.860940
vt 0.198739 0.860940
vt 0.198739 0.860940
vt 0.198739 0.860940
vt 0.198739 0.860940
vt 0.198739 0.860940
vt 0.198739 0.860940
vt 0.198739 0.860940
vt 0.198739 0.860940
vt 0.198739 0.860940
vt 0.198739 0.860940
vt 0.198739 0.860940
vt 0.198739 0.860940
vt 0.198739 0.860940
vt 0.198739 0.860940
vt 0.198739 0.860940
vt 0.198739 0.860940
vt 0.198739 0.860940
vt 0.198739 0.860940
vt 0.198739 0.860940
vt 0.198739 0.860940
vt 0.198739 0.860940
vt 0.198739 0.860940
vt 0.198739 0.860940
vt 0.198739 0.860940
vt 0.198739 0.860940
vt 0.198739 0.860940
vt 0.198739 0.860940
vt 0.198739 0.860940
vt 0.198739 0.860940
vt 0.198739 0.860940
vt 0.198739 0.860940
vt 0.198739 0.860940
vt 0.198739 0.860940
vt 0.198739 0.860940
vt 0.198739 0.860940
vt 0.198739 0.860940
vt 0.198739 0.860940
vt 0.198739 0.860940
vt 0.198739 0.860940
vt 0.198739 0.860940
vt 0.198739 0.860940
vt 0.198739 0.860940
vt 0.198739 0.860940
vt 0.198739 0.860940
vt 0.198739 0.860940
vt 0.198739 0.860940
vt 0.198739 0.860940
vt 0.198739 0.860940
vt 0.198739 0.860940
vt 0.198739 0.860940
vt 0.198739 0.860940
vt 0.198739 0.860940
vt 0.198739 0.860940
vt 0.198739 0.860940
vt 0.198739 0.860940
vt 0.198739 0.860940
vt 0.198739 0.860940
vt 0.198739 0.860940
vt 0.198739 0.860940
vt 0.400945 0.893262
vt 0.400945 0.893262
vt 0.400945 0.893262
vt 0.198739 0.860940
vt 0.198739 0.860940
vt 0.198739 0.860940
vt 0.061680 0.720293
vt 0.356441 0.860706
vt 0.060441 0.858044
vt 0.371993 0.999910
vt 0.033922 0.859688
vt 0.374407 0.863316
vt 0.198739 0.860940
vt 0.198739 0.860940
vt 0.400945 0.893262
vt 0.400945 0.893262
vt 0.400945 0.893262
vt 0.400945 0.893262
vt 0.400945 0.893262
vt 0.400945 0.893262
vt 0.036336 0.723094
vt 0.376822 0.726721
vt 0.400945 0.893262
vt 0.355202 0.998457
vt 0.059202 0.995794
vt 0.400945 0.893262
vt 0.400945 0.893262
vt 0.357680 0.722956
vt 0.031507 0.996283
vn 0.0000 1.0000 0.0000
vn 0.0000 0.0000 1.0000
vn -1.0000 -0.0000 0.0000
vn 0.0000 -1.0000 0.0000
vn 1.0000 -0.0000 0.0000
vn 0.0000 -0.0000 -1.0000
s 1
f 2/1/1 4/2/1 1/3/1
f 4/2/2 6/4/2 5/5/2
f 8/6/3 10/7/3 7/8/3
f 12/9/4 14/10/4 11/11/4
f 16/12/5 18/13/5 15/14/5
f 20/15/6 22/16/6 19/17/6
f 24/18/6 26/19/6 23/20/6
f 28/21/6 30/22/6 27/23/6
f 20/24/1 33/25/1 31/26/1
f 35/27/5 37/28/5 34/29/5
f 39/30/5 41/31/5 38/32/5
f 43/33/5 45/34/5 42/35/5
f 47/36/4 49/37/4 46/38/4
f 51/39/4 53/40/4 50/41/4
f 55/42/4 57/43/4 54/44/4
f 59/45/3 61/46/3 58/47/3
f 63/48/3 65/49/3 62/50/3
f 2/1/3 68/51/3 66/52/3
f 70/53/2 72/54/2 69/55/2
f 74/56/2 76/57/2 73/58/2
f 78/59/2 80/60/2 77/61/2
f 82/62/1 78/59/1 81/63/1
f 84/64/1 86/65/1 83/66/1
f 8/6/1 88/67/1 87/68/1
f 87/68/1 85/69/1 84/64/1
f 89/70/1 84/64/1 31/71/1
f 9/72/1 87/68/1 89/70/1
f 83/66/1 44/73/1 43/33/1
f 20/15/1 43/33/1 21/74/1
f 31/71/1 83/66/1 20/15/1
f 81/63/1 17/75/1 16/12/1
f 86/65/1 16/12/1 44/73/1
f 85/69/1 81/63/1 86/65/1
f 77/61/2 75/76/2 74/56/2
f 18/13/2 74/56/2 36/77/2
f 17/75/2 77/61/2 18/13/2
f 73/58/2 48/78/2 14/10/2
f 37/28/2 14/10/2 13/79/2
f 36/77/2 73/58/2 37/28/2
f 69/55/2 90/80/2 49/37/2
f 76/57/2 49/37/2 48/78/2
f 75/76/2 69/55/2 76/57/2
f 66/52/3 64/81/3 63/48/3
f 6/4/3 63/48/3 71/82/3
f 3/83/3 66/52/3 6/4/3
f 62/50/3 92/84/3 91/85/3
f 72/54/3 91/85/3 90/80/3
f 71/82/3 62/50/3 72/54/3
f 58/47/3 94/86/3 93/87/3
f 65/49/3 93/87/3 92/84/3
f 64/81/3 58/47/3 65/49/3
f 54/44/4 52/88/4 51/39/4
f 96/89/4 51/39/4 95/90/4
f 97/91/4 54/44/4 96/89/4
f 50/41/4 92/84/4 93/87/4
f 98/92/4 93/87/4 94/86/4
f 95/90/4 50/41/4 98/92/4
f 46/38/4 90/80/4 91/85/4
f 53/40/4 91/85/4 92/84/4
f 52/88/4 46/38/4 53/40/4
f 42/35/5 40/93/5 39/30/5
f 22/16/5 39/30/5 25/94/5
f 21/74/5 42/35/5 22/16/5
f 38/32/5 56/95/5 55/42/5
f 26/19/5 55/42/5 97/91/5
f 25/94/5 38/32/5 26/19/5
f 34/29/5 13/79/5 12/9/5
f 41/31/5 12/9/5 56/95/5
f 40/93/5 34/29/5 41/31/5
f 28/96/4 100/97/4 29/98/4
f 10/7/6 28/21/6 60/99/6
f 9/72/6 101/100/6 10/7/6
f 27/23/6 95/90/6 98/92/6
f 61/46/6 98/92/6 94/86/6
f 60/99/6 27/23/6 61/46/6
f 23/20/6 97/91/6 96/89/6
f 30/22/6 96/89/6 95/90/6
f 29/101/6 23/20/6 30/22/6
f 19/17/6 25/94/6 24/18/6
f 89/102/3 103/103/3 101/104/3
f 24/105/5 105/106/5 19/107/5
f 15/14/5 36/77/5 35/27/5
f 45/34/5 35/27/5 40/93/5
f 44/73/5 15/14/5 45/34/5
f 11/11/4 48/78/4 47/36/4
f 57/43/4 47/36/4 52/88/4
f 56/95/4 11/11/4 57/43/4
f 7/8/3 60/99/3 59/45/3
f 68/51/3 59/45/3 64/81/3
f 67/108/3 7/8/3 68/51/3
f 5/5/2 71/82/2 70/53/2
f 80/60/2 70/53/2 75/76/2
f 79/109/2 5/5/2 80/60/2
f 1/3/1 79/109/1 82/62/1
f 88/67/1 82/62/1 85/69/1
f 67/108/1 1/3/1 88/67/1
f 102/110/6 106/111/6 103/112/6
f 103/112/6 100/97/6 99/113/6
f 106/111/6 104/114/6 100/97/6
f 33/25/6 105/115/6 106/111/6
f 19/107/5 32/116/5 20/117/5
f 29/98/4 104/114/4 24/118/4
f 101/104/3 99/119/3 28/120/3
f 31/26/1 102/110/1 89/121/1
f 2/1/1 3/83/1 4/2/1
f 4/2/2 3/83/2 6/4/2
f 8/6/3 9/72/3 10/7/3
f 12/9/4 13/79/4 14/10/4
f 16/12/5 17/75/5 18/13/5
f 20/15/6 21/74/6 22/16/6
f 24/18/6 25/94/6 26/19/6
f 28/21/6 29/101/6 30/22/6
f 20/24/1 32/122/1 33/25/1
f 35/27/5 36/77/5 37/28/5
f 39/30/5 40/93/5 41/31/5
f 43/33/5 44/73/5 45/34/5
f 47/36/4 48/78/4 49/37/4
f 51/39/4 52/88/4 53/40/4
f 55/42/4 56/95/4 57/43/4
f 59/45/3 60/99/3 61/46/3
f 63/48/3 64/81/3 65/49/3
f 2/1/3 67/108/3 68/51/3
f 70/53/2 71/82/2 72/54/2
f 74/56/2 75/76/2 76/57/2
f 78/59/2 79/109/2 80/60/2
f 82/62/1 79/109/1 78/59/1
f 84/64/1 85/69/1 86/65/1
f 8/6/1 67/108/1 88/67/1
f 87/68/1 88/67/1 85/69/1
f 89/70/1 87/68/1 84/64/1
f 9/72/1 8/6/1 87/68/1
f 83/66/1 86/65/1 44/73/1
f 20/15/1 83/66/1 43/33/1
f 31/71/1 84/64/1 83/66/1
f 81/63/1 78/59/1 17/75/1
f 86/65/1 81/63/1 16/12/1
f 85/69/1 82/62/1 81/63/1
f 77/61/2 80/60/2 75/76/2
f 18/13/2 77/61/2 74/56/2
f 17/75/2 78/59/2 77/61/2
f 73/58/2 76/57/2 48/78/2
f 37/28/2 73/58/2 14/10/2
f 36/77/2 74/56/2 73/58/2
f 69/55/2 72/54/2 90/80/2
f 76/57/2 69/55/2 49/37/2
f 75/76/2 70/53/2 69/55/2
f 66/52/3 68/51/3 64/81/3
f 6/4/3 66/52/3 63/48/3
f 3/83/3 2/1/3 66/52/3
f 62/50/3 65/49/3 92/84/3
f 72/54/3 62/50/3 91/85/3
f 71/82/3 63/48/3 62/50/3
f 58/47/3 61/46/3 94/86/3
f 65/49/3 58/47/3 93/87/3
f 64/81/3 59/45/3 58/47/3
f 54/44/4 57/43/4 52/88/4
f 96/89/4 54/44/4 51/39/4
f 97/91/4 55/42/4 54/44/4
f 50/41/4 53/40/4 92/84/4
f 98/92/4 50/41/4 93/87/4
f 95/90/4 51/39/4 50/41/4
f 46/38/4 49/37/4 90/80/4
f 53/40/4 46/38/4 91/85/4
f 52/88/4 47/36/4 46/38/4
f 42/35/5 45/34/5 40/93/5
f 22/16/5 42/35/5 39/30/5
f 21/74/5 43/33/5 42/35/5
f 38/32/5 41/31/5 56/95/5
f 26/19/5 38/32/5 55/42/5
f 25/94/5 39/30/5 38/32/5
f 34/29/5 37/28/5 13/79/5
f 41/31/5 34/29/5 12/9/5
f 40/93/5 35/27/5 34/29/5
f 28/96/4 99/113/4 100/97/4
f 10/7/6 101/100/6 28/21/6
f 9/72/6 89/70/6 101/100/6
f 27/23/6 30/22/6 95/90/6
f 61/46/6 27/23/6 98/92/6
f 60/99/6 28/21/6 27/23/6
f 23/20/6 26/19/6 97/91/6
f 30/22/6 23/20/6 96/89/6
f 29/101/6 24/18/6 23/20/6
f 19/17/6 22/16/6 25/94/6
f 89/102/3 102/123/3 103/103/3
f 24/105/5 104/124/5 105/106/5
f 15/14/5 18/13/5 36/77/5
f 45/34/5 15/14/5 35/27/5
f 44/73/5 16/12/5 15/14/5
f 11/11/4 14/10/4 48/78/4
f 57/43/4 11/11/4 47/36/4
f 56/95/4 12/9/4 11/11/4
f 7/8/3 10/7/3 60/99/3
f 68/51/3 7/8/3 59/45/3
f 67/108/3 8/6/3 7/8/3
f 5/5/2 6/4/2 71/82/2
f 80/60/2 5/5/2 70/53/2
f 79/109/2 4/2/2 5/5/2
f 1/3/1 4/2/1 79/109/1
f 88/67/1 1/3/1 82/62/1
f 67/108/1 2/1/1 1/3/1
f 102/110/6 33/25/6 106/111/6
f 103/112/6 106/111/6 100/97/6
f 106/111/6 105/115/6 104/114/6
f 33/25/6 32/122/6 105/115/6
f 19/107/5 105/106/5 32/116/5
f 29/98/4 100/97/4 104/114/4
f 101/104/3 103/103/3 99/119/3
f 31/26/1 33/25/1 102/110/1
