# Blender v3.5.0 OBJ File: ''
# www.blender.org
o Curve
v 0.120000 33.608494 0.454937
v 0.120000 34.545120 0.000884
v 0.120000 33.608494 -0.453170
v 0.120000 33.466042 -1.484570
v 0.120000 32.744759 -0.733921
v 0.120000 31.720139 -0.917127
v 0.120000 32.211102 0.000884
v 0.120000 31.720139 0.919018
v 0.120000 32.744759 0.735688
v 0.120000 33.466042 1.486337
v -0.120000 33.608494 0.454937
v -0.120000 34.545120 0.000884
v -0.120000 33.608494 -0.453170
v -0.120000 33.466042 -1.484570
v -0.120000 32.744759 -0.733921
v -0.120000 31.720139 -0.917127
v -0.120000 32.211102 0.000884
v -0.120000 31.720139 0.919018
v -0.120000 32.744759 0.735688
v -0.120000 33.466042 1.486337
v -0.120000 33.608494 0.454937
v 0.120000 33.608494 0.454937
v -0.120000 34.545120 0.000884
v 0.120000 34.545120 0.000884
v -0.120000 33.608494 -0.453170
v 0.120000 33.608494 -0.453170
v -0.120000 33.466042 -1.484570
v 0.120000 33.466042 -1.484570
v -0.120000 32.744759 -0.733921
v 0.120000 32.744759 -0.733921
v -0.120000 31.720139 -0.917127
v 0.120000 31.720139 -0.917127
v -0.120000 32.211102 0.000884
v 0.120000 32.211102 0.000884
v -0.120000 31.720139 0.919018
v 0.120000 31.720139 0.919018
v -0.120000 32.744759 0.735688
v 0.120000 32.744759 0.735688
v -0.120000 33.466042 1.486337
v 0.120000 33.466042 1.486337
vt 0.000000 0.000000
vt 0.222222 0.000000
vt 0.111111 0.000000
vt 1.000000 0.000000
vt 0.333333 0.000000
vt 0.888889 0.000000
vt 0.444444 0.000000
vt 0.777778 0.000000
vt 0.666667 0.000000
vt 0.555556 0.000000
vt 0.000000 0.000000
vt 0.111111 0.000000
vt 0.222222 0.000000
vt 1.000000 0.000000
vt 0.333333 0.000000
vt 0.888889 0.000000
vt 0.444444 0.000000
vt 0.777778 0.000000
vt 0.666667 0.000000
vt 0.555556 0.000000
vt 0.100000 1.000000
vt 0.000000 0.000000
vt 0.000000 1.000000
vt 0.200000 1.000000
vt 0.100000 0.000000
vt 0.300000 1.000000
vt 0.200000 0.000000
vt 0.400000 1.000000
vt 0.300000 0.000000
vt 0.500000 1.000000
vt 0.400000 0.000000
vt 0.600000 1.000000
vt 0.500000 0.000000
vt 0.700000 1.000000
vt 0.600000 0.000000
vt 0.800000 1.000000
vt 0.700000 0.000000
vt 0.900000 1.000000
vt 0.800000 0.000000
vt 1.000000 1.000000
vt 0.900000 0.000000
vt 1.000000 0.000000
vn 1.0000 -0.0000 -0.0000
vn -1.0000 0.0000 0.0000
vn 0.0000 1.0000 -0.0000
vn 0.0000 0.8090 0.5878
vn 0.0000 0.8090 -0.5878
vn 0.0000 0.3090 -0.9511
vn 0.0000 -0.3091 -0.9510
vn 0.0000 -0.8090 -0.5878
vn 0.0000 -1.0000 0.0000
vn 0.0000 -0.8090 0.5878
vn 0.0000 -0.3090 0.9511
vn 0.0000 0.3090 0.9511
s off
f 1/1/1 3/2/1 2/3/1
f 10/4/1 3/2/1 1/1/1
f 10/4/1 4/5/1 3/2/1
f 9/6/1 4/5/1 10/4/1
f 9/6/1 5/7/1 4/5/1
f 8/8/1 5/7/1 9/6/1
f 8/8/1 7/9/1 5/7/1
f 7/9/1 6/10/1 5/7/1
f 11/11/2 12/12/2 13/13/2
f 20/14/2 11/11/2 13/13/2
f 20/14/2 13/13/2 14/15/2
f 19/16/2 20/14/2 14/15/2
f 19/16/2 14/15/2 15/17/2
f 18/18/2 19/16/2 15/17/2
f 18/18/2 15/17/2 17/19/2
f 17/19/2 15/17/2 16/20/2
s 1
f 24/21/3 21/22/4 22/23/4
f 26/24/5 23/25/3 24/21/3
f 28/26/6 25/27/5 26/24/5
f 30/28/7 27/29/6 28/26/6
f 32/30/8 29/31/7 30/28/7
f 34/32/9 31/33/8 32/30/8
f 36/34/10 33/35/9 34/32/9
f 38/36/11 35/37/10 36/34/10
f 40/38/12 37/39/11 38/36/11
f 22/40/4 39/41/12 40/38/12
f 24/21/3 23/25/3 21/22/4
f 26/24/5 25/27/5 23/25/3
f 28/26/6 27/29/6 25/27/5
f 30/28/7 29/31/7 27/29/6
f 32/30/8 31/33/8 29/31/7
f 34/32/9 33/35/9 31/33/8
f 36/34/10 35/37/10 33/35/9
f 38/36/11 37/39/11 35/37/10
f 40/38/12 39/41/12 37/39/11
f 22/40/4 21/42/4 39/41/12
