# Blender v3.5.0 OBJ File: 'park.blend'
# www.blender.org
o Cube
v 5.000000 0.100000 -10.000000
v 5.000000 -0.100000 -10.000000
v 5.000000 0.100000 10.000000
v 5.000000 -0.100000 10.000000
v -5.000000 0.100000 -10.000000
v -5.000000 -0.100000 -10.000000
v -5.000000 0.100000 10.000000
v -5.000000 -0.100000 10.000000
v -5.000000 -0.100000 0.000000
v 0.000000 -0.100000 -10.000000
v 5.000000 0.000000 -10.000000
v -5.000000 0.000000 10.000000
v 5.000000 0.000000 10.000000
v -5.000000 0.000000 -10.000000
v 5.000000 0.100000 0.000000
v 0.000000 -0.100000 10.000000
v -5.000000 0.100000 0.000000
v 5.000000 -0.100000 0.000000
v 0.000000 0.000000 -10.000000
v 5.000000 0.000000 0.000000
v 0.000000 -0.100000 0.000000
v -5.000000 0.000000 0.000000
v 0.000000 0.000000 10.000000
v -5.000000 -0.100000 5.000000
v -2.500000 -0.100000 -10.000000
v 5.000000 -0.050000 -10.000000
v -5.000000 0.050000 10.000000
v 5.000000 -0.050000 10.000000
v -5.000000 -0.050000 -10.000000
v -2.500000 0.100000 10.000000
v 5.000000 0.100000 5.000000
v 2.500000 -0.100000 10.000000
v -5.000000 0.100000 -5.000000
v 2.500000 0.100000 -10.000000
v 5.000000 -0.100000 -5.000000
v -5.000000 -0.100000 -5.000000
v 2.500000 -0.100000 -10.000000
v 5.000000 0.050000 -10.000000
v -5.000000 -0.050000 10.000000
v 5.000000 0.050000 10.000000
v -5.000000 0.050000 -10.000000
v 2.500000 0.100000 10.000000
v 5.000000 0.100000 -5.000000
v -2.500000 -0.100000 10.000000
v -5.000000 0.100000 5.000000
v -2.500000 0.100000 -10.000000
v 5.000000 -0.100000 5.000000
v 2.500000 0.000000 -10.000000
v -2.500000 0.000000 -10.000000
v 0.000000 -0.050000 -10.000000
v 5.000000 0.000000 5.000000
v 5.000000 0.000000 -5.000000
v 5.000000 -0.050000 0.000000
v 5.000000 0.050000 0.000000
v 0.000000 -0.100000 5.000000
v 0.000000 -0.100000 -5.000000
v -2.500000 -0.100000 0.000000
v 2.500000 -0.100000 0.000000
v -5.000000 0.000000 -5.000000
v -5.000000 0.000000 5.000000
v -5.000000 -0.050000 0.000000
v -5.000000 0.050000 0.000000
v -2.500000 0.000000 10.000000
v 2.500000 0.000000 10.000000
v 0.000000 -0.050000 10.000000
v 2.500000 0.100000 0.000000
v -2.500000 0.100000 0.000000
v -2.500000 0.100000 -5.000000
v 2.500000 0.100000 -5.000000
v 2.500000 0.100000 5.000000
v 2.500000 0.050000 10.000000
v 2.500000 -0.050000 10.000000
v -2.500000 -0.050000 10.000000
v -5.000000 0.050000 5.000000
v -5.000000 -0.050000 5.000000
v -5.000000 -0.050000 -5.000000
v 2.500000 -0.100000 -5.000000
v -2.500000 -0.100000 -5.000000
v -2.500000 -0.100000 5.000000
v 5.000000 0.050000 -5.000000
v 5.000000 -0.050000 -5.000000
v 5.000000 -0.050000 5.000000
v -2.500000 0.050000 -10.000000
v -2.500000 -0.050000 -10.000000
v 2.500000 -0.050000 -10.000000
v 2.500000 0.050000 -10.000000
v 5.000000 0.050000 5.000000
v 2.500000 -0.100000 5.000000
v -5.000000 0.050000 -5.000000
v -2.500000 0.050000 10.000000
v -2.500000 0.100000 5.000000
v 2.500000 0.004138 10.000000
v 0.000000 0.004138 10.000000
v -2.500000 0.004138 -10.000000
v 0.000000 0.004138 -10.000000
v 0.000000 0.004138 5.000000
v 0.000000 0.004138 -5.000000
v 0.000000 0.004138 0.000000
v -2.500000 0.004138 0.000000
v -2.500000 0.004138 10.000000
v 2.500000 0.004138 -10.000000
v 2.500000 0.004138 0.000000
v -2.500000 0.004138 -5.000000
v 2.500000 0.004138 -5.000000
v 2.500000 0.004138 5.000000
v -2.500000 0.004138 5.000000
vt 0.033226 0.019424
vt 0.486495 0.471358
vt 0.486495 0.019424
vt 0.477291 0.875364
vt 0.365599 0.987056
vt 0.365599 0.875364
vt 0.493818 0.841635
vt 0.382651 0.952802
vt 0.382651 0.841635
vt 0.972636 0.440070
vt 0.590639 0.058072
vt 0.972636 0.058072
vt 0.501810 0.849538
vt 0.390553 0.960794
vt 0.390553 0.849538
vt 0.488273 0.842769
vt 0.377925 0.953116
vt 0.377925 0.842769
vt 0.267578 0.842769
vt 0.157231 0.953116
vt 0.157231 0.842769
vt 0.267578 0.622075
vt 0.157231 0.732422
vt 0.157231 0.622075
vt 0.279297 0.849538
vt 0.168040 0.960794
vt 0.168040 0.849538
vt 0.279297 0.627025
vt 0.168040 0.738281
vt 0.168040 0.627025
vt 0.501810 0.627025
vt 0.390553 0.738281
vt 0.390553 0.627025
vt 0.972636 0.445884
vt 0.590639 0.063887
vt 0.972636 0.063887
vt 0.969805 0.445884
vt 0.590791 0.063887
vt 0.969805 0.063887
vt 0.969805 0.440069
vt 0.590792 0.058072
vt 0.969805 0.058072
vt 0.271484 0.841635
vt 0.160318 0.952802
vt 0.160318 0.841635
vt 0.271484 0.619302
vt 0.160318 0.730469
vt 0.160318 0.619302
vt 0.493818 0.619302
vt 0.382651 0.730469
vt 0.382651 0.619302
vt 0.253906 0.875364
vt 0.142214 0.987056
vt 0.142214 0.875364
vt 0.253906 0.651980
vt 0.142214 0.763672
vt 0.142214 0.651980
vt 0.248954 0.655268
vt 0.145966 0.601551
vt 0.248954 0.601551
vt 0.352001 0.762701
vt 0.249013 0.708984
vt 0.352001 0.708984
vt 0.033226 0.017949
vt 0.486495 0.475505
vt 0.486495 0.017949
vt 0.352001 0.655268
vt 0.249013 0.601551
vt 0.352001 0.601551
vt 0.033226 0.471219
vt 0.486495 0.471218
vt 0.034925 0.019424
vt 0.486858 0.475505
vt 0.486858 0.019424
vt 0.034925 0.471358
vt 0.486858 0.471358
vt 0.248954 0.762701
vt 0.145966 0.708984
vt 0.248954 0.708984
vt 0.034925 0.017949
vt 0.486858 0.471219
vt 0.486858 0.017949
vt 0.034925 0.475505
vt 0.365599 0.540287
vt 0.253906 0.540287
vt 0.477291 0.540287
vt 0.365599 0.651980
vt 0.030522 0.763672
vt 0.030522 0.651980
vt 0.142214 0.540287
vt 0.030522 0.540287
vt 0.030522 0.987056
vt 0.030522 0.875364
vt 0.253906 0.763672
vt 0.271484 0.730469
vt 0.382651 0.508135
vt 0.271484 0.508135
vt 0.493818 0.508135
vt 0.049151 0.730469
vt 0.049151 0.619302
vt 0.160318 0.508135
vt 0.049151 0.508135
vt 0.049151 0.952802
vt 0.049151 0.841635
vt 0.590792 0.445884
vt 0.587961 0.058072
vt 0.587961 0.445884
vt 0.587961 0.440069
vt 0.590791 0.445731
vt 0.969805 0.445731
vt 0.587961 0.063887
vt 0.587961 0.445731
vt 0.590639 0.445731
vt 0.972636 0.445731
vt 0.279297 0.738281
vt 0.390553 0.515768
vt 0.279297 0.515768
vt 0.501810 0.515768
vt 0.056784 0.738281
vt 0.056784 0.627025
vt 0.168040 0.515768
vt 0.056784 0.515768
vt 0.056784 0.960794
vt 0.056784 0.849538
vt 0.377925 0.511727
vt 0.267578 0.511727
vt 0.488273 0.511727
vt 0.377925 0.622075
vt 0.046884 0.732422
vt 0.046884 0.622075
vt 0.157231 0.511727
vt 0.046884 0.511727
vt 0.046884 0.953116
vt 0.046884 0.842769
vt 0.267578 0.732422
vt 0.267578 0.953116
vt 0.279297 0.960794
vt 0.501810 0.738281
vt 0.590639 0.445884
vt 0.590792 0.440070
vt 0.271484 0.952802
vt 0.493818 0.730469
vt 0.253906 0.987056
vt 0.352001 0.816418
vt 0.249013 0.762701
vt 0.249013 0.655268
vt 0.033226 0.475505
vt 0.492868 0.524642
vt 0.037231 0.988889
vt 0.037231 0.524642
vt 0.492868 0.523190
vt 0.037231 0.990308
vt 0.037231 0.523190
vt 0.030073 0.523190
vt 0.492868 0.990308
vt 0.030073 0.985986
vt 0.492868 0.985986
vt 0.037231 0.985986
vt 0.030073 0.524642
vt 0.492868 0.988889
vt 0.030073 0.990308
vt 0.248954 0.816418
vt 0.145966 0.762701
vt 0.145966 0.655268
vt 0.033226 0.471358
vt 0.477291 0.987056
vt 0.493818 0.952802
vt 0.590639 0.440069
vt 0.501810 0.960794
vt 0.488273 0.953116
vt 0.034925 0.471219
vt 0.477291 0.651980
vt 0.488273 0.622075
vt 0.249013 0.816418
vt 0.030073 0.988889
vt 0.145966 0.816418
vn 0.0000 1.0000 0.0000
vn 0.0000 0.0000 1.0000
vn -1.0000 0.0000 0.0000
vn 0.0000 -1.0000 0.0000
vn 1.0000 0.0000 0.0000
vn 0.0000 0.0000 -1.0000
s off
f 45/1/1 30/2/1 91/3/1
f 30/4/2 27/5/2 90/6/2
f 33/7/3 41/8/3 89/9/3
f 47/10/4 32/11/4 88/12/4
f 31/13/5 40/14/5 87/15/5
f 34/16/6 38/17/6 86/18/6
f 48/19/6 26/20/6 85/21/6
f 49/22/6 50/23/6 84/24/6
f 51/25/5 28/26/5 82/27/5
f 52/28/5 53/29/5 81/30/5
f 43/31/5 54/32/5 80/33/5
f 55/34/4 44/35/4 79/36/4
f 56/37/4 57/38/4 78/39/4
f 35/40/4 58/41/4 77/42/4
f 59/43/3 29/44/3 76/45/3
f 60/46/3 61/47/3 75/48/3
f 45/49/3 62/50/3 74/51/3
f 63/52/2 39/53/2 73/54/2
f 64/55/2 65/56/2 72/57/2
f 70/58/3 92/59/3 42/60/3
f 91/61/5 99/62/5 67/63/5
f 33/64/1 67/65/1 68/66/1
f 68/67/5 94/68/5 46/69/5
f 5/70/1 68/66/1 46/71/1
f 69/72/1 15/73/1 43/74/1
f 34/75/1 43/74/1 1/76/1
f 69/77/3 102/78/3 66/79/3
f 70/80/1 3/81/1 31/82/1
f 66/83/1 31/82/1 15/73/1
f 40/84/2 64/55/2 13/85/2
f 3/86/2 71/87/2 40/84/2
f 72/57/2 16/88/2 32/89/2
f 28/90/2 32/89/2 4/91/2
f 13/85/2 72/57/2 28/90/2
f 73/54/2 8/92/2 44/93/2
f 65/56/2 44/93/2 16/88/2
f 23/94/2 73/54/2 65/56/2
f 74/51/3 22/95/3 60/46/3
f 27/96/3 60/46/3 12/97/3
f 7/98/3 74/51/3 27/96/3
f 75/48/3 9/99/3 24/100/3
f 39/101/3 24/100/3 8/102/3
f 12/97/3 75/48/3 39/101/3
f 76/45/3 6/103/3 36/104/3
f 61/47/3 36/104/3 9/99/3
f 22/95/3 76/45/3 61/47/3
f 77/42/4 21/105/4 56/37/4
f 37/106/4 56/37/4 10/107/4
f 2/108/4 77/42/4 37/106/4
f 78/39/4 9/109/4 36/110/4
f 25/111/4 36/110/4 6/112/4
f 10/107/4 78/39/4 25/111/4
f 79/36/4 8/113/4 24/114/4
f 57/38/4 24/114/4 9/109/4
f 21/105/4 79/36/4 57/38/4
f 80/33/5 20/115/5 52/28/5
f 38/116/5 52/28/5 11/117/5
f 1/118/5 80/33/5 38/116/5
f 81/30/5 18/119/5 35/120/5
f 26/121/5 35/120/5 2/122/5
f 11/117/5 81/30/5 26/121/5
f 82/27/5 4/123/5 47/124/5
f 53/29/5 47/124/5 18/119/5
f 20/115/5 82/27/5 53/29/5
f 41/125/6 49/22/6 14/126/6
f 5/127/6 83/128/6 41/125/6
f 84/24/6 10/129/6 25/130/6
f 29/131/6 25/130/6 6/132/6
f 14/126/6 84/24/6 29/131/6
f 85/21/6 2/133/6 37/134/6
f 50/23/6 37/134/6 10/129/6
f 19/135/6 85/21/6 50/23/6
f 86/18/6 11/136/6 48/19/6
f 87/15/5 13/137/5 51/25/5
f 54/32/5 51/25/5 20/115/5
f 15/138/5 87/15/5 54/32/5
f 88/12/4 16/139/4 55/34/4
f 58/41/4 55/34/4 21/105/4
f 18/140/4 88/12/4 58/41/4
f 89/9/3 14/141/3 59/43/3
f 62/50/3 59/43/3 22/95/3
f 17/142/3 89/9/3 62/50/3
f 90/6/2 12/143/2 63/52/2
f 30/144/5 106/145/5 91/61/5
f 67/63/5 103/146/5 68/67/5
f 17/147/1 91/3/1 67/65/1
f 96/148/1 92/149/1 105/150/1
f 97/151/1 102/152/1 104/153/1
f 103/154/1 98/155/1 97/151/1
f 94/156/1 97/151/1 95/157/1
f 95/157/1 104/153/1 101/158/1
f 98/155/1 105/150/1 102/152/1
f 106/159/1 93/160/1 96/148/1
f 99/161/1 96/148/1 98/155/1
f 34/162/3 104/163/3 69/77/3
f 66/79/3 105/164/3 70/58/3
f 45/1/1 7/165/1 30/2/1
f 30/4/2 7/166/2 27/5/2
f 33/7/3 5/167/3 41/8/3
f 47/10/4 4/168/4 32/11/4
f 31/13/5 3/169/5 40/14/5
f 34/16/6 1/170/6 38/17/6
f 48/19/6 11/136/6 26/20/6
f 49/22/6 19/135/6 50/23/6
f 51/25/5 13/137/5 28/26/5
f 52/28/5 20/115/5 53/29/5
f 43/31/5 15/138/5 54/32/5
f 55/34/4 16/139/4 44/35/4
f 56/37/4 21/105/4 57/38/4
f 35/40/4 18/140/4 58/41/4
f 59/43/3 14/141/3 29/44/3
f 60/46/3 22/95/3 61/47/3
f 45/49/3 17/142/3 62/50/3
f 63/52/2 12/143/2 39/53/2
f 64/55/2 23/94/2 65/56/2
f 70/58/3 105/164/3 92/59/3
f 91/61/5 106/145/5 99/62/5
f 33/64/1 17/147/1 67/65/1
f 68/67/5 103/146/5 94/68/5
f 5/70/1 33/64/1 68/66/1
f 69/72/1 66/83/1 15/73/1
f 34/75/1 69/72/1 43/74/1
f 69/77/3 104/163/3 102/78/3
f 70/80/1 42/171/1 3/81/1
f 66/83/1 70/80/1 31/82/1
f 40/84/2 71/87/2 64/55/2
f 3/86/2 42/172/2 71/87/2
f 72/57/2 65/56/2 16/88/2
f 28/90/2 72/57/2 32/89/2
f 13/85/2 64/55/2 72/57/2
f 73/54/2 39/53/2 8/92/2
f 65/56/2 73/54/2 44/93/2
f 23/94/2 63/52/2 73/54/2
f 74/51/3 62/50/3 22/95/3
f 27/96/3 74/51/3 60/46/3
f 7/98/3 45/49/3 74/51/3
f 75/48/3 61/47/3 9/99/3
f 39/101/3 75/48/3 24/100/3
f 12/97/3 60/46/3 75/48/3
f 76/45/3 29/44/3 6/103/3
f 61/47/3 76/45/3 36/104/3
f 22/95/3 59/43/3 76/45/3
f 77/42/4 58/41/4 21/105/4
f 37/106/4 77/42/4 56/37/4
f 2/108/4 35/40/4 77/42/4
f 78/39/4 57/38/4 9/109/4
f 25/111/4 78/39/4 36/110/4
f 10/107/4 56/37/4 78/39/4
f 79/36/4 44/35/4 8/113/4
f 57/38/4 79/36/4 24/114/4
f 21/105/4 55/34/4 79/36/4
f 80/33/5 54/32/5 20/115/5
f 38/116/5 80/33/5 52/28/5
f 1/118/5 43/31/5 80/33/5
f 81/30/5 53/29/5 18/119/5
f 26/121/5 81/30/5 35/120/5
f 11/117/5 52/28/5 81/30/5
f 82/27/5 28/26/5 4/123/5
f 53/29/5 82/27/5 47/124/5
f 20/115/5 51/25/5 82/27/5
f 41/125/6 83/128/6 49/22/6
f 5/127/6 46/173/6 83/128/6
f 84/24/6 50/23/6 10/129/6
f 29/131/6 84/24/6 25/130/6
f 14/126/6 49/22/6 84/24/6
f 85/21/6 26/20/6 2/133/6
f 50/23/6 85/21/6 37/134/6
f 19/135/6 48/19/6 85/21/6
f 86/18/6 38/17/6 11/136/6
f 87/15/5 40/14/5 13/137/5
f 54/32/5 87/15/5 51/25/5
f 15/138/5 31/13/5 87/15/5
f 88/12/4 32/11/4 16/139/4
f 58/41/4 88/12/4 55/34/4
f 18/140/4 47/10/4 88/12/4
f 89/9/3 41/8/3 14/141/3
f 62/50/3 89/9/3 59/43/3
f 17/142/3 33/7/3 89/9/3
f 90/6/2 27/5/2 12/143/2
f 30/144/5 100/174/5 106/145/5
f 67/63/5 99/62/5 103/146/5
f 17/147/1 45/1/1 91/3/1
f 96/148/1 93/160/1 92/149/1
f 97/151/1 98/155/1 102/152/1
f 103/154/1 99/161/1 98/155/1
f 94/156/1 103/154/1 97/151/1
f 95/157/1 97/151/1 104/153/1
f 98/155/1 96/148/1 105/150/1
f 106/159/1 100/175/1 93/160/1
f 99/161/1 106/159/1 96/148/1
f 34/162/3 101/176/3 104/163/3
f 66/79/3 102/78/3 105/164/3
