# Blender v3.5.0 OBJ File: 'urss2.blend'
# www.blender.org
o Plane
v -1.500000 0.000000 1.000000
v 1.500000 0.000000 1.000000
v -1.500000 0.000000 -1.000000
v 1.500000 0.000000 -1.000000
vt 1.000000 0.000000
vt 0.000000 1.000000
vt 0.000000 0.000000
vt 1.000000 1.000000
vn 0.0000 1.0000 0.0000
s off
f 2/1/1 3/2/1 1/3/1
f 2/1/1 4/4/1 3/2/1
o path233_path233.001
v 0.469271 0.192724 -0.835873
v 0.402851 0.192724 -0.952686
v 1.602251 0.192724 -0.950856
v 1.605049 0.192724 0.445117
v 1.529013 0.192724 0.432421
v 1.459009 0.192724 0.343128
v 1.321995 0.192724 0.338889
v 1.304504 0.192724 0.281983
v 1.022425 0.192724 0.193878
v 1.050492 0.192724 0.153636
v 1.040227 0.192724 0.096526
v 1.094134 0.192724 0.042094
v 1.026767 0.192724 0.058438
v 1.026767 0.192724 0.083129
v 0.962300 0.192724 0.098422
v 0.934961 0.192724 0.133188
v 0.906342 0.192724 0.150908
v 0.858338 0.192724 0.149104
v 0.905641 0.192724 0.162189
v 0.913980 0.192724 0.190597
v 0.959392 0.192724 0.176294
v 0.995799 0.192724 0.185479
v 0.957296 0.192724 0.196456
v 0.892323 0.192724 0.247513
v 0.859831 0.192724 0.256993
v 0.799058 0.192724 0.210189
v 0.831742 0.192724 0.170714
v 0.810994 0.192724 0.154912
v 0.768467 0.192724 0.173397
v 0.750871 0.192724 0.146134
v 0.703847 0.192724 0.134699
v 0.675786 0.192724 0.181413
v 0.626939 0.192724 0.130069
v 0.605299 0.192724 0.127226
v 0.586024 0.192724 0.069923
v 0.538908 0.192724 0.070067
v 0.450400 0.192724 0.058578
v 0.436173 0.192724 -0.055254
v 0.476962 0.192724 -0.153994
v 0.452883 0.192724 -0.232291
v 0.450936 0.192724 -0.276968
v 0.498136 0.192724 -0.350951
v 0.489321 0.192724 -0.469109
v 0.462589 0.192724 -0.483215
v 0.439386 0.192724 -0.550269
v 0.432429 0.192724 -0.594253
v 0.479633 0.192724 -0.618376
v 0.490188 0.192724 -0.651325
v 0.515129 0.192724 -0.640936
v 0.535602 0.192724 -0.657307
v 0.563812 0.192724 -0.625336
v 0.612367 0.192724 -0.641456
v 0.600848 0.192724 -0.697571
v 0.614810 0.192724 -0.721981
v 0.600255 0.192724 -0.758706
v 0.565676 0.192724 -0.771449
v 0.504155 0.192724 -0.812528
v 0.469271 0.152724 -0.835873
v 0.402851 0.152724 -0.952686
v 1.602251 0.152724 -0.950856
v 1.605049 0.152724 0.445117
v 1.529013 0.152724 0.432421
v 1.459009 0.152724 0.343128
v 1.321995 0.152724 0.338889
v 1.304504 0.152724 0.281983
v 1.022425 0.152724 0.193878
v 1.050492 0.152724 0.153636
v 1.040227 0.152724 0.096526
v 1.094134 0.152724 0.042094
v 1.026767 0.152724 0.058438
v 1.026767 0.152724 0.083129
v 0.962300 0.152724 0.098422
v 0.934961 0.152724 0.133188
v 0.906342 0.152724 0.150908
v 0.858338 0.152724 0.149104
v 0.905641 0.152724 0.162189
v 0.913980 0.152724 0.190597
v 0.959392 0.152724 0.176294
v 0.995799 0.152724 0.185479
v 0.957296 0.152724 0.196456
v 0.892323 0.152724 0.247513
v 0.859831 0.152724 0.256993
v 0.799058 0.152724 0.210189
v 0.831742 0.152724 0.170714
v 0.810994 0.152724 0.154912
v 0.768467 0.152724 0.173397
v 0.750871 0.152724 0.146134
v 0.703847 0.152724 0.134699
v 0.675786 0.152724 0.181413
v 0.626939 0.152724 0.130069
v 0.605299 0.152724 0.127226
v 0.586024 0.152724 0.069923
v 0.538908 0.152724 0.070067
v 0.450400 0.152724 0.058578
v 0.436173 0.152724 -0.055254
v 0.476962 0.152724 -0.153994
v 0.452883 0.152724 -0.232291
v 0.450936 0.152724 -0.276968
v 0.498136 0.152724 -0.350951
v 0.489321 0.152724 -0.469109
v 0.462589 0.152724 -0.483215
v 0.439386 0.152724 -0.550269
v 0.432429 0.152724 -0.594253
v 0.479633 0.152724 -0.618376
v 0.490188 0.152724 -0.651325
v 0.515129 0.152724 -0.640936
v 0.535602 0.152724 -0.657307
v 0.563812 0.152724 -0.625336
v 0.612367 0.152724 -0.641456
v 0.600848 0.152724 -0.697571
v 0.614810 0.152724 -0.721981
v 0.600255 0.152724 -0.758706
v 0.565676 0.152724 -0.771449
v 0.504155 0.152724 -0.812528
v 0.469271 0.152724 -0.835873
v 0.469271 0.192724 -0.835873
v 0.402851 0.152724 -0.952686
v 0.402851 0.192724 -0.952686
v 1.602251 0.152724 -0.950856
v 1.602251 0.192724 -0.950856
v 1.605049 0.152724 0.445117
v 1.605049 0.192724 0.445117
v 1.529013 0.152724 0.432421
v 1.529013 0.192724 0.432421
v 1.459009 0.152724 0.343128
v 1.459009 0.192724 0.343128
v 1.321995 0.152724 0.338889
v 1.321995 0.192724 0.338889
v 1.304504 0.152724 0.281983
v 1.304504 0.192724 0.281983
v 1.022425 0.152724 0.193878
v 1.022425 0.192724 0.193878
v 1.050492 0.152724 0.153636
v 1.050492 0.192724 0.153636
v 1.040227 0.152724 0.096526
v 1.040227 0.192724 0.096526
v 1.094134 0.152724 0.042094
v 1.094134 0.192724 0.042094
v 1.026767 0.152724 0.058438
v 1.026767 0.192724 0.058438
v 1.026767 0.152724 0.083129
v 1.026767 0.192724 0.083129
v 0.962300 0.152724 0.098422
v 0.962300 0.192724 0.098422
v 0.934961 0.152724 0.133188
v 0.934961 0.192724 0.133188
v 0.906342 0.152724 0.150908
v 0.906342 0.192724 0.150908
v 0.858338 0.152724 0.149104
v 0.858338 0.192724 0.149104
v 0.905641 0.152724 0.162189
v 0.905641 0.192724 0.162189
v 0.913980 0.152724 0.190597
v 0.913980 0.192724 0.190597
v 0.959392 0.152724 0.176294
v 0.959392 0.192724 0.176294
v 0.995799 0.152724 0.185479
v 0.995799 0.192724 0.185479
v 0.957296 0.152724 0.196456
v 0.957296 0.192724 0.196456
v 0.892323 0.152724 0.247513
v 0.892323 0.192724 0.247513
v 0.859831 0.152724 0.256993
v 0.859831 0.192724 0.256993
v 0.799058 0.152724 0.210189
v 0.799058 0.192724 0.210189
v 0.831742 0.152724 0.170714
v 0.831742 0.192724 0.170714
v 0.810994 0.152724 0.154912
v 0.810994 0.192724 0.154912
v 0.768467 0.152724 0.173397
v 0.768467 0.192724 0.173397
v 0.750871 0.152724 0.146134
v 0.750871 0.192724 0.146134
v 0.703847 0.152724 0.134699
v 0.703847 0.192724 0.134699
v 0.675786 0.152724 0.181413
v 0.675786 0.192724 0.181413
v 0.626939 0.152724 0.130069
v 0.626939 0.192724 0.130069
v 0.605299 0.152724 0.127226
v 0.605299 0.192724 0.127226
v 0.586024 0.152724 0.069923
v 0.586024 0.192724 0.069923
v 0.538908 0.152724 0.070067
v 0.538908 0.192724 0.070067
v 0.450400 0.152724 0.058578
v 0.450400 0.192724 0.058578
v 0.436173 0.152724 -0.055254
v 0.436173 0.192724 -0.055254
v 0.476962 0.152724 -0.153994
v 0.476962 0.192724 -0.153994
v 0.452883 0.152724 -0.232291
v 0.452883 0.192724 -0.232291
v 0.450936 0.152724 -0.276968
v 0.450936 0.192724 -0.276968
v 0.498136 0.152724 -0.350951
v 0.498136 0.192724 -0.350951
v 0.489321 0.152724 -0.469109
v 0.489321 0.192724 -0.469109
v 0.462589 0.152724 -0.483215
v 0.462589 0.192724 -0.483215
v 0.439386 0.152724 -0.550269
v 0.439386 0.192724 -0.550269
v 0.432429 0.152724 -0.594253
v 0.432429 0.192724 -0.594253
v 0.479633 0.152724 -0.618376
v 0.479633 0.192724 -0.618376
v 0.490188 0.152724 -0.651325
v 0.490188 0.192724 -0.651325
v 0.515129 0.152724 -0.640936
v 0.515129 0.192724 -0.640936
v 0.535602 0.152724 -0.657307
v 0.535602 0.192724 -0.657307
v 0.563812 0.152724 -0.625336
v 0.563812 0.192724 -0.625336
v 0.612367 0.152724 -0.641456
v 0.612367 0.192724 -0.641456
v 0.600848 0.152724 -0.697571
v 0.600848 0.192724 -0.697571
v 0.614810 0.152724 -0.721981
v 0.614810 0.192724 -0.721981
v 0.600255 0.152724 -0.758706
v 0.600255 0.192724 -0.758706
v 0.565676 0.152724 -0.771449
v 0.565676 0.192724 -0.771449
v 0.504155 0.152724 -0.812528
v 0.504155 0.192724 -0.812528
vt 0.765582 0.601672
vt 0.765582 0.601672
vt 0.765582 0.601672
vt 0.765582 0.601672
vt 0.765582 0.601672
vt 0.765582 0.601672
vt 0.765582 0.601672
vt 0.765582 0.601672
vt 0.765582 0.601672
vt 0.765582 0.601672
vt 0.765582 0.601672
vt 0.765582 0.601672
vt 0.765582 0.601672
vt 0.765582 0.601672
vt 0.765582 0.601672
vt 0.765582 0.601672
vt 0.765582 0.601672
vt 0.765582 0.601672
vt 0.765582 0.601672
vt 0.765582 0.601672
vt 0.765582 0.601672
vt 0.765582 0.601672
vt 0.765582 0.601672
vt 0.765582 0.601672
vt 0.765582 0.601672
vt 0.765582 0.601672
vt 0.765582 0.601672
vt 0.765582 0.601672
vt 0.765582 0.601672
vt 0.765582 0.601672
vt 0.765582 0.601672
vt 0.765582 0.601672
vt 0.765582 0.601672
vt 0.765582 0.601672
vt 0.765582 0.601672
vt 0.765582 0.601672
vt 0.765582 0.601672
vt 0.765582 0.601672
vt 0.765582 0.601672
vt 0.765582 0.601672
vt 0.765582 0.601672
vt 0.765582 0.601672
vt 0.765582 0.601672
vt 0.765582 0.601672
vt 0.765582 0.601672
vt 0.765582 0.601672
vt 0.765582 0.601672
vt 0.765582 0.601672
vt 0.765582 0.601672
vt 0.765582 0.601672
vt 0.765582 0.601672
vt 0.765582 0.601672
vt 0.765582 0.601672
vt 0.765582 0.601672
vt 0.765582 0.601672
vt 0.765582 0.601672
vt 0.765582 0.601672
vt 0.765582 0.601672
vt 0.765582 0.601672
vt 0.765582 0.601672
vt 0.765582 0.601672
vt 0.765582 0.601672
vt 0.765582 0.601672
vt 0.765582 0.601672
vt 0.765582 0.601672
vt 0.765582 0.601672
vt 0.765582 0.601672
vt 0.765582 0.601672
vt 0.765582 0.601672
vt 0.765582 0.601672
vt 0.765582 0.601672
vt 0.765582 0.601672
vt 0.765582 0.601672
vt 0.765582 0.601672
vt 0.765582 0.601672
vt 0.765582 0.601672
vt 0.765582 0.601672
vt 0.765582 0.601672
vt 0.765582 0.601672
vt 0.765582 0.601672
vt 0.765582 0.601672
vt 0.765582 0.601672
vt 0.765582 0.601672
vt 0.765582 0.601672
vt 0.765582 0.601672
vt 0.765582 0.601672
vt 0.765582 0.601672
vt 0.765582 0.601672
vt 0.765582 0.601672
vt 0.765582 0.601672
vt 0.765582 0.601672
vt 0.765582 0.601672
vt 0.765582 0.601672
vt 0.765582 0.601672
vt 0.765582 0.601672
vt 0.765582 0.601672
vt 0.765582 0.601672
vt 0.765582 0.601672
vt 0.765582 0.601672
vt 0.765582 0.601672
vt 0.765582 0.601672
vt 0.765582 0.601672
vt 0.765582 0.601672
vt 0.765582 0.601672
vt 0.765582 0.601672
vt 0.765582 0.601672
vt 0.765582 0.601672
vt 0.765582 0.601672
vt 0.765582 0.601672
vt 0.765582 0.601672
vt 0.765582 0.601672
vt 0.765582 0.601672
vt 0.765582 0.601672
vt 0.765582 0.601672
vt 0.765582 0.601672
vt 0.765582 0.601672
vt 0.765582 0.601672
vt 0.765582 0.601672
vt 0.765582 0.601672
vt 0.765582 0.601672
vt 0.765582 0.601672
vt 0.765582 0.601672
vt 0.765582 0.601672
vt 0.765582 0.601672
vt 0.765582 0.601672
vt 0.765582 0.601672
vt 0.765582 0.601672
vt 0.765582 0.601672
vt 0.765582 0.601672
vt 0.765582 0.601672
vt 0.765582 0.601672
vt 0.765582 0.601672
vt 0.765582 0.601672
vt 0.765582 0.601672
vt 0.765582 0.601672
vt 0.765582 0.601672
vt 0.765582 0.601672
vt 0.765582 0.601672
vt 0.765582 0.601672
vt 0.765582 0.601672
vt 0.765582 0.601672
vt 0.765582 0.601672
vt 0.765582 0.601672
vt 0.765582 0.601672
vt 0.765582 0.601672
vt 0.765582 0.601672
vt 0.765582 0.601672
vt 0.765582 0.601672
vt 0.765582 0.601672
vt 0.765582 0.601672
vt 0.765582 0.601672
vt 0.765582 0.601672
vt 0.765582 0.601672
vt 0.765582 0.601672
vt 0.765582 0.601672
vt 0.765582 0.601672
vt 0.765582 0.601672
vt 0.765582 0.601672
vt 0.765582 0.601672
vt 0.765582 0.601672
vt 0.765582 0.601672
vt 0.765582 0.601672
vt 0.765582 0.601672
vt 0.765582 0.601672
vt 0.765582 0.601672
vt 0.765582 0.601672
vt 0.765582 0.601672
vt 0.765582 0.601672
vt 0.765582 0.601672
vt 0.765582 0.601672
vt 0.765582 0.601672
vt 0.765582 0.601672
vt 0.765582 0.601672
vt 0.765582 0.601672
vt 0.765582 0.601672
vt 0.765582 0.601672
vt 0.765582 0.601672
vt 0.765582 0.601672
vt 0.765582 0.601672
vt 0.765582 0.601672
vt 0.765582 0.601672
vt 0.765582 0.601672
vt 0.765582 0.601672
vt 0.765582 0.601672
vt 0.765582 0.601672
vt 0.765582 0.601672
vt 0.765582 0.601672
vt 0.765582 0.601672
vt 0.765582 0.601672
vt 0.765582 0.601672
vt 0.765582 0.601672
vt 0.765582 0.601672
vt 0.765582 0.601672
vt 0.765582 0.601672
vt 0.765582 0.601672
vt 0.765582 0.601672
vt 0.765582 0.601672
vt 0.765582 0.601672
vt 0.765582 0.601672
vt 0.765582 0.601672
vt 0.765582 0.601672
vt 0.765582 0.601672
vt 0.765582 0.601672
vt 0.765582 0.601672
vt 0.765582 0.601672
vt 0.765582 0.601672
vt 0.765582 0.601672
vt 0.765582 0.601672
vt 0.765582 0.601672
vt 0.765582 0.601672
vt 0.765582 0.601672
vt 0.765582 0.601672
vt 0.765582 0.601672
vt 0.765582 0.601672
vt 0.765582 0.601672
vt 0.765582 0.601672
vt 0.765582 0.601672
vt 0.765582 0.601672
vt 0.765582 0.601672
vt 0.765582 0.601672
vt 0.765582 0.601672
vt 0.765582 0.601672
vt 0.765582 0.601672
vt 0.765582 0.601672
vt 0.765582 0.601672
vt 0.765582 0.601672
vt 0.765582 0.601672
vt 0.765582 0.601672
vn 0.0000 1.0000 0.0000
vn 0.0000 -1.0000 0.0000
vn -0.8640 0.0000 -0.5035
vn -0.7324 0.0000 0.6809
vn 0.7069 0.0000 -0.7073
vn 0.6470 0.0000 0.7625
vn -0.5104 0.0000 0.8599
vn -0.4515 0.0000 0.8923
vn -0.6066 0.0000 0.7950
vn -0.7087 0.0000 0.7055
vn -0.9462 0.0000 0.3236
vn -0.9769 0.0000 -0.2139
vn -0.9549 0.0000 -0.2968
vn -0.8707 0.0000 0.4918
vn 0.7861 0.0000 0.6182
vn 0.7845 0.0000 0.6202
vn 0.5385 0.0000 0.8426
vn 0.6664 0.0000 0.7456
vn 0.2556 0.0000 0.9668
vn 0.9882 0.0000 0.1531
vn 0.7015 0.0000 -0.7126
vn 0.4707 0.0000 -0.8823
vn -0.0290 0.0000 -0.9996
vn 0.9999 0.0000 -0.0153
vn 0.4546 0.0000 0.8907
vn 0.4573 0.0000 0.8893
vn -0.1851 0.0000 0.9827
vn -0.9938 0.0000 0.1113
vn -0.9935 0.0000 0.1139
vn -0.1201 0.0000 0.9928
vn -0.2896 0.0000 0.9571
vn -0.5795 0.0000 0.8150
vn 0.3854 0.0000 0.9227
vn 0.1096 0.0000 0.9940
vn -0.4533 0.0000 0.8914
vn -0.6354 0.0000 0.7722
vn -0.5824 0.0000 0.8129
vn -0.0630 0.0000 0.9980
vn -0.7088 0.0000 0.7054
vn -0.9911 0.0000 -0.1333
vn -0.9989 0.0000 -0.0467
vn -0.9854 0.0000 0.1701
vn -0.9658 0.0000 -0.2592
vn -0.9697 0.0000 -0.2442
vn -0.8365 0.0000 0.5479
vn -0.7589 0.0000 0.6512
vn -0.9701 0.0000 0.2426
vn -0.8912 0.0000 -0.4535
vn -0.7621 0.0000 -0.6474
vn -0.4196 0.0000 -0.9077
vn -0.1395 0.0000 -0.9902
vn 0.0866 0.0000 -0.9962
vn 0.2606 0.0000 -0.9654
vn -0.8659 0.0000 -0.5003
vn -0.9875 0.0000 -0.1579
vn -0.9975 0.0000 -0.0710
vn -0.6985 0.0000 0.7156
vn -0.4537 0.0000 0.8912
vn -0.5557 0.0000 0.8314
s off
f 5/5/2 7/6/2 6/7/2
f 5/5/2 59/8/2 7/6/2
f 59/8/2 8/9/2 7/6/2
f 61/10/2 59/8/2 5/5/2
f 60/11/2 59/8/2 61/10/2
f 58/12/2 8/9/2 59/8/2
f 57/13/2 8/9/2 58/12/2
f 56/14/2 8/9/2 57/13/2
f 53/15/2 55/16/2 54/17/2
f 51/18/2 53/15/2 52/19/2
f 55/16/2 8/9/2 56/14/2
f 51/18/2 55/16/2 53/15/2
f 51/18/2 8/9/2 55/16/2
f 50/20/2 8/9/2 51/18/2
f 49/21/2 8/9/2 50/20/2
f 48/22/2 47/23/2 49/21/2
f 47/23/2 8/9/2 49/21/2
f 46/24/2 16/25/2 47/23/2
f 16/25/2 8/9/2 47/23/2
f 45/26/2 16/25/2 46/24/2
f 44/27/2 16/25/2 45/26/2
f 43/28/2 16/25/2 44/27/2
f 42/29/2 16/25/2 43/28/2
f 41/30/2 16/25/2 42/29/2
f 41/30/2 17/31/2 16/25/2
f 15/32/2 10/33/2 16/25/2
f 10/33/2 8/9/2 16/25/2
f 41/30/2 18/34/2 17/31/2
f 40/35/2 39/36/2 41/30/2
f 39/36/2 18/34/2 41/30/2
f 38/37/2 18/34/2 39/36/2
f 38/37/2 19/38/2 18/34/2
f 14/39/2 10/33/2 15/32/2
f 38/37/2 20/40/2 19/38/2
f 37/41/2 20/40/2 38/37/2
f 36/42/2 35/43/2 37/41/2
f 35/43/2 20/40/2 37/41/2
f 35/43/2 21/44/2 20/40/2
f 34/45/2 22/46/2 35/43/2
f 22/46/2 21/44/2 35/43/2
f 33/47/2 32/48/2 34/45/2
f 32/48/2 22/46/2 34/45/2
f 32/48/2 23/49/2 22/46/2
f 13/50/2 12/51/2 14/39/2
f 12/51/2 10/33/2 14/39/2
f 31/52/2 23/49/2 32/48/2
f 31/52/2 24/53/2 23/49/2
f 30/54/2 24/53/2 31/52/2
f 24/53/2 26/55/2 25/56/2
f 24/53/2 27/57/2 26/55/2
f 30/54/2 27/57/2 24/53/2
f 30/54/2 28/58/2 27/57/2
f 29/59/2 28/58/2 30/54/2
f 11/60/2 10/33/2 12/51/2
f 9/61/2 8/9/2 10/33/2
f 62/62/3 63/63/3 64/64/3
f 62/62/3 64/64/3 116/65/3
f 116/65/3 64/64/3 65/66/3
f 118/67/3 62/62/3 116/65/3
f 117/68/3 118/67/3 116/65/3
f 115/69/3 116/65/3 65/66/3
f 114/70/3 115/69/3 65/66/3
f 113/71/3 114/70/3 65/66/3
f 110/72/3 111/73/3 112/74/3
f 108/75/3 109/76/3 110/72/3
f 112/74/3 113/71/3 65/66/3
f 108/75/3 110/72/3 112/74/3
f 108/75/3 112/74/3 65/66/3
f 107/77/3 108/75/3 65/66/3
f 106/78/3 107/77/3 65/66/3
f 105/79/3 106/78/3 104/80/3
f 104/80/3 106/78/3 65/66/3
f 103/81/3 104/80/3 73/82/3
f 73/82/3 104/80/3 65/66/3
f 102/83/3 103/81/3 73/82/3
f 101/84/3 102/83/3 73/82/3
f 100/85/3 101/84/3 73/82/3
f 99/86/3 100/85/3 73/82/3
f 98/87/3 99/86/3 73/82/3
f 98/87/3 73/82/3 74/88/3
f 72/89/3 73/82/3 67/90/3
f 67/90/3 73/82/3 65/66/3
f 98/87/3 74/88/3 75/91/3
f 97/92/3 98/87/3 96/93/3
f 96/93/3 98/87/3 75/91/3
f 95/94/3 96/93/3 75/91/3
f 95/94/3 75/91/3 76/95/3
f 71/96/3 72/89/3 67/90/3
f 95/94/3 76/95/3 77/97/3
f 94/98/3 95/94/3 77/97/3
f 93/99/3 94/98/3 92/100/3
f 92/100/3 94/98/3 77/97/3
f 92/100/3 77/97/3 78/101/3
f 91/102/3 92/100/3 79/103/3
f 79/103/3 92/100/3 78/101/3
f 90/104/3 91/102/3 89/105/3
f 89/105/3 91/102/3 79/103/3
f 89/105/3 79/103/3 80/106/3
f 70/107/3 71/96/3 69/108/3
f 69/108/3 71/96/3 67/90/3
f 88/109/3 89/105/3 80/106/3
f 88/109/3 80/106/3 81/110/3
f 87/111/3 88/109/3 81/110/3
f 81/110/3 82/112/3 83/113/3
f 81/110/3 83/113/3 84/114/3
f 87/111/3 81/110/3 84/114/3
f 87/111/3 84/114/3 85/115/3
f 86/116/3 87/111/3 85/115/3
f 68/117/3 69/108/3 67/90/3
f 66/118/3 67/90/3 65/66/3
s 1
f 122/119/4 119/120/5 120/121/5
f 124/122/6 121/123/4 122/119/4
f 126/124/7 123/125/6 124/122/6
f 128/126/8 125/127/7 126/124/7
f 130/128/9 127/129/8 128/126/8
f 132/130/10 129/131/9 130/128/9
f 134/132/11 131/133/10 132/130/10
f 136/134/12 133/135/11 134/132/11
f 138/136/13 135/137/12 136/134/12
f 140/138/14 137/139/13 138/136/13
f 142/140/15 139/141/14 140/138/14
f 144/142/16 141/143/15 142/140/15
f 146/144/17 143/145/16 144/142/16
f 148/146/18 145/147/17 146/144/17
f 150/148/19 147/149/18 148/146/18
f 152/150/20 149/151/19 150/148/19
f 154/152/21 151/153/20 152/150/20
f 156/154/22 153/155/21 154/152/21
f 158/156/23 155/157/22 156/154/22
f 160/158/24 157/159/23 158/156/23
f 162/160/25 159/161/24 160/158/24
f 164/162/26 161/163/25 162/160/25
f 166/164/27 163/165/26 164/162/26
f 168/166/28 165/167/27 166/164/27
f 170/168/29 167/169/28 168/166/28
f 172/170/30 169/171/29 170/168/29
f 174/172/31 171/173/30 172/170/30
f 176/174/32 173/175/31 174/172/31
f 178/176/33 175/177/32 176/174/32
f 180/178/34 177/179/33 178/176/33
f 182/180/35 179/181/34 180/178/34
f 184/182/36 181/183/35 182/180/35
f 186/184/37 183/185/36 184/182/36
f 188/186/38 185/187/37 186/184/37
f 190/188/39 187/189/38 188/186/38
f 192/190/40 189/191/39 190/188/39
f 194/192/41 191/193/40 192/190/40
f 196/194/42 193/195/41 194/192/41
f 198/196/43 195/197/42 196/194/42
f 200/198/44 197/199/43 198/196/43
f 202/200/45 199/201/44 200/198/44
f 204/202/46 201/203/45 202/200/45
f 206/204/47 203/205/46 204/202/46
f 208/206/48 205/207/47 206/204/47
f 210/208/49 207/209/48 208/206/48
f 212/210/50 209/211/49 210/208/49
f 214/212/51 211/213/50 212/210/50
f 216/214/52 213/215/51 214/212/51
f 218/216/53 215/217/52 216/214/52
f 220/218/54 217/219/53 218/216/53
f 222/220/55 219/221/54 220/218/54
f 224/222/56 221/223/55 222/220/55
f 226/224/57 223/225/56 224/222/56
f 228/226/58 225/227/57 226/224/57
f 230/228/59 227/229/58 228/226/58
f 232/230/60 229/231/59 230/228/59
f 120/121/5 231/232/60 232/230/60
f 122/119/4 121/123/4 119/120/5
f 124/122/6 123/125/6 121/123/4
f 126/124/7 125/127/7 123/125/6
f 128/126/8 127/129/8 125/127/7
f 130/128/9 129/131/9 127/129/8
f 132/130/10 131/133/10 129/131/9
f 134/132/11 133/135/11 131/133/10
f 136/134/12 135/137/12 133/135/11
f 138/136/13 137/139/13 135/137/12
f 140/138/14 139/141/14 137/139/13
f 142/140/15 141/143/15 139/141/14
f 144/142/16 143/145/16 141/143/15
f 146/144/17 145/147/17 143/145/16
f 148/146/18 147/149/18 145/147/17
f 150/148/19 149/151/19 147/149/18
f 152/150/20 151/153/20 149/151/19
f 154/152/21 153/155/21 151/153/20
f 156/154/22 155/157/22 153/155/21
f 158/156/23 157/159/23 155/157/22
f 160/158/24 159/161/24 157/159/23
f 162/160/25 161/163/25 159/161/24
f 164/162/26 163/165/26 161/163/25
f 166/164/27 165/167/27 163/165/26
f 168/166/28 167/169/28 165/167/27
f 170/168/29 169/171/29 167/169/28
f 172/170/30 171/173/30 169/171/29
f 174/172/31 173/175/31 171/173/30
f 176/174/32 175/177/32 173/175/31
f 178/176/33 177/179/33 175/177/32
f 180/178/34 179/181/34 177/179/33
f 182/180/35 181/183/35 179/181/34
f 184/182/36 183/185/36 181/183/35
f 186/184/37 185/187/37 183/185/36
f 188/186/38 187/189/38 185/187/37
f 190/188/39 189/191/39 187/189/38
f 192/190/40 191/193/40 189/191/39
f 194/192/41 193/195/41 191/193/40
f 196/194/42 195/197/42 193/195/41
f 198/196/43 197/199/43 195/197/42
f 200/198/44 199/201/44 197/199/43
f 202/200/45 201/203/45 199/201/44
f 204/202/46 203/205/46 201/203/45
f 206/204/47 205/207/47 203/205/46
f 208/206/48 207/209/48 205/207/47
f 210/208/49 209/211/49 207/209/48
f 212/210/50 211/213/50 209/211/49
f 214/212/51 213/215/51 211/213/50
f 216/214/52 215/217/52 213/215/51
f 218/216/53 217/219/53 215/217/52
f 220/218/54 219/221/54 217/219/53
f 222/220/55 221/223/55 219/221/54
f 224/222/56 223/225/56 221/223/55
f 226/224/57 225/227/57 223/225/56
f 228/226/58 227/229/58 225/227/57
f 230/228/59 229/231/59 227/229/58
f 232/230/60 231/232/60 229/231/59
f 120/121/5 119/120/5 231/232/60
